<svg width="218" height="256" viewBox="0 0 218 256" fill="none" xmlns="http://www.w3.org/2000/svg">
<g clip-path="url(#clip0)">
<path fill-rule="evenodd" clip-rule="evenodd" d="M89.5704 27.2008C82.8431 32.33 77.2094 38.7013 72.9576 45.9543C65.9916 44.5639 58.4851 44.268 50.8849 45.3566C52.7925 37.0693 56.7009 29.2694 62.3473 22.754C63.6614 21.2449 65.6071 20.4353 67.6037 20.5794C75.3739 21.1305 82.877 23.4323 89.5704 27.2008ZM108.519 66.2551C115.249 58.8181 123.124 53.3773 131.499 49.8245C126.514 42.3511 119.621 36.2087 111.363 32.0799C109.574 31.1855 107.463 31.1855 105.675 32.0799C97.4169 36.2087 90.5242 42.3511 85.5391 49.8245C93.9146 53.3773 101.789 58.8185 108.519 66.2551ZM149.065 129.082C154.873 126.186 160.201 122.363 164.847 117.717C178.866 103.694 183.775 82.9526 177.497 64.1228C176.865 62.228 175.373 60.7358 173.478 60.1042C154.665 53.8347 133.919 58.7223 119.884 72.7535C115.238 77.3995 111.41 82.728 108.519 88.5397C105.628 82.728 101.8 77.3995 97.1541 72.7535C83.1313 58.735 62.3897 53.8262 43.5599 60.1042C41.6608 60.7358 40.1729 62.228 39.5413 64.1228C33.2717 82.9357 38.1593 103.681 52.1906 117.717C56.8323 122.359 62.165 126.186 67.9725 129.082C62.165 131.977 56.8366 135.801 52.1906 140.447C38.1721 154.469 33.2632 175.211 39.5413 194.041C40.1729 195.936 41.665 197.428 43.5599 198.059C62.3727 204.329 83.1186 199.441 97.1541 185.41C101.8 180.764 105.628 175.436 108.519 169.624C111.41 175.436 115.238 180.764 119.884 185.41C133.983 199.509 154.75 204.303 173.478 198.059C175.377 197.428 176.865 195.936 177.497 194.041C183.766 175.228 178.879 154.482 164.847 140.447C160.206 135.805 154.873 131.977 149.065 129.082ZM203.228 131.926C199.421 139.539 193.906 145.987 187.213 150.858C183.616 142.837 178.352 135.423 171.346 129.082C178.068 122.999 183.461 115.675 187.208 107.301C193.902 112.172 199.421 118.624 203.228 126.237C204.122 128.026 204.122 130.137 203.228 131.926ZM29.8296 150.862C33.5774 142.489 38.9703 135.165 45.6921 129.082C38.6858 122.741 33.4222 115.326 29.8254 107.306C23.1319 112.176 17.6169 118.624 13.8103 126.237C12.9158 128.026 12.9158 130.137 13.8103 131.926C17.6169 139.539 23.1362 145.991 29.8296 150.862ZM131.584 208.373C126.628 215.588 119.88 221.522 111.83 225.55C110.084 226.418 107.988 226.467 106.145 225.55C97.9807 221.467 91.1516 215.418 86.1792 208.059C94.6051 204.38 102.172 198.922 108.519 191.909C115.26 199.357 123.16 204.809 131.584 208.373ZM214.847 177.742C208.221 183.486 200.264 187.428 191.82 189.297C193.401 180.751 193.257 171.96 191.367 163.414C197.988 159.2 203.813 153.8 208.539 147.454C213.41 154.881 216.381 163.507 217.021 172.485C217.166 174.482 216.356 176.428 214.847 177.742ZM154.691 235.41C160.341 228.894 164.245 221.09 166.153 212.803C158.906 213.851 151.392 213.648 144.216 212.23C139.875 219.471 134.148 225.808 127.328 230.887C134.055 234.702 141.613 237.029 149.434 237.584C149.587 237.597 149.735 237.601 149.888 237.601C151.723 237.601 153.478 236.808 154.691 235.41ZM67.6037 237.584C75.6367 237.012 83.3857 234.574 90.2444 230.581C83.5468 225.52 77.9258 219.233 73.6571 212.069C66.2684 213.62 58.4766 213.905 50.8849 212.807C52.7925 221.094 56.7009 228.894 62.3473 235.41C63.5597 236.808 65.3146 237.601 67.1501 237.601C67.3027 237.601 67.4511 237.597 67.6037 237.584ZM166.153 45.3566C158.553 44.268 151.047 44.5639 144.08 45.9543C139.829 38.7013 134.195 32.33 127.467 27.2008C134.161 23.4323 141.664 21.1305 149.434 20.5794C151.431 20.4353 153.376 21.2449 154.691 22.754C160.337 29.2694 164.245 37.0693 166.153 45.3566ZM2.19107 178.534C8.85909 184.316 16.8709 188.271 25.3786 190.124C23.6279 181.319 23.7212 172.231 25.6754 163.414C19.1812 159.285 13.4542 154.016 8.77854 147.827C3.74256 155.347 0.665019 164.13 0.0164459 173.278C-0.127682 175.275 0.681975 177.22 2.19107 178.534ZM217.021 85.6783C216.381 94.6566 213.41 103.283 208.539 110.71C203.813 104.36 197.988 98.9635 191.363 94.7499C193.253 86.2082 193.402 77.4122 191.82 68.8663C200.265 70.7357 208.221 74.678 214.847 80.4219C216.356 81.736 217.166 83.6818 217.021 85.6783ZM8.49877 110.71C13.2253 104.364 19.0497 98.9635 25.6711 94.7499C23.7805 86.204 23.6406 77.408 25.2175 68.8663C16.7734 70.7357 8.8167 74.678 2.19107 80.4219C0.681975 81.736 -0.127682 83.6818 0.0164459 85.6783C0.656541 94.6566 3.62811 103.283 8.49877 110.71ZM89.4433 129.082C89.4433 118.565 98.0019 110.006 108.519 110.006C119.036 110.006 127.595 118.565 127.595 129.082C127.595 139.599 119.036 148.157 108.519 148.157C98.0019 148.157 89.4433 139.599 89.4433 129.082ZM102.16 129.082C102.16 132.592 105.009 135.44 108.519 135.44C112.029 135.44 114.878 132.592 114.878 129.082C114.878 125.572 112.029 122.723 108.519 122.723C105.009 122.723 102.16 125.572 102.16 129.082Z" fill="#A1C2FE"/>
<path fill-rule="evenodd" clip-rule="evenodd" d="M117.096 178.18C118.736 178.469 119.859 176.867 122.398 171.526L122.585 171.138L122.77 170.769C125.796 164.818 129.296 162.921 133.269 165.078L134.863 160.373L134.327 160.127L133.812 159.894C125.565 156.209 121.11 155.985 120.448 159.222L120.383 159.576L120.328 159.861C119.843 162.329 118.66 167.082 117.804 171.129L117.66 171.819C116.945 175.287 116.526 178.08 117.096 178.18Z" fill="white"/>
<path fill-rule="evenodd" clip-rule="evenodd" d="M99.5332 130.457C99.5332 130.457 111.591 132.055 117.69 131.778C123.788 131.501 132.707 128.951 132.707 128.951L132.495 136.652C132.495 136.652 160.946 136.078 156.649 159.384C153.82 174.735 132.167 168.422 132.167 168.422L136.308 159.384C136.308 159.384 149.296 160.323 144.567 156.372C143.689 155.639 138.081 154.628 130.7 154.825C124.361 154.995 118.854 153.096 118.281 151.39C116.133 144.997 119.252 141.634 119.252 141.634C119.252 141.634 116.235 143.103 116.807 146.674C117.38 150.244 113.163 223.352 113.163 223.352C113.163 223.352 109.348 224.028 107.43 224.028C105.511 224.028 102.871 223.352 102.871 223.352L99.5332 130.457Z" fill="white"/>
<path fill-rule="evenodd" clip-rule="evenodd" d="M99.5332 130.457C99.5332 130.457 105.893 223.955 105.008 223.808C104.34 223.698 102.871 223.352 102.871 223.352L99.5332 130.457Z" fill="#E7EAEE"/>
<path fill-rule="evenodd" clip-rule="evenodd" d="M104.77 224.792C105.188 228.471 104.406 229.945 104.51 229.945C106.214 229.945 107.232 229.911 109.966 229.699C109.966 229.699 109.813 228.114 109.813 227.369C109.813 226.479 109.966 224.792 109.966 224.792H104.77Z" fill="white"/>
<path d="M100.558 45.3803C100.558 45.3803 94.1992 47.7681 94.1992 43.2735C94.1992 38.7789 99.1048 41.0194 99.1048 41.0194" fill="white"/>
<path d="M128.535 45.8495C129.87 46.1465 134.046 48.7507 134.046 42.4453C134.046 39.436 129.277 41.6096 129.277 41.6096" fill="white"/>
<path d="M113.36 19.5521C108.107 20.0618 97.0978 25.057 99.1023 39.3287C100.656 50.3921 108.931 62.3172 114.016 62.3172C119.008 62.3172 127.414 52.2783 128.634 42.3945C131.126 22.2094 118.613 19.0425 113.36 19.5521Z" fill="white"/>
<path fill-rule="evenodd" clip-rule="evenodd" d="M113.555 29.7652C113.834 29.1172 114.737 29.074 115.076 29.6924C116.81 32.8462 118.752 35.0439 120.888 36.302C123.046 37.5724 125.591 37.6978 128.188 36.5335C128.615 36.3419 129.117 36.533 129.308 36.9602C129.5 37.3875 129.309 37.8891 128.882 38.0807C125.787 39.4683 122.662 39.3143 120.028 37.7632C117.975 36.5542 116.126 34.633 114.473 32.0096L114.412 31.9121L114.358 32.0181C113.022 34.5526 111.3 36.5768 109.191 38.0805L108.979 38.2292C106.324 40.0564 103.208 40.8688 99.6614 40.6686C99.1939 40.6423 98.8363 40.2419 98.8627 39.7744C98.8891 39.3069 99.2894 38.9493 99.7569 38.9757C102.938 39.1553 105.682 38.44 108.018 36.8324C110.376 35.2093 112.221 32.8599 113.555 29.7652Z" fill="#E7EAEE"/>
<path fill-rule="evenodd" clip-rule="evenodd" d="M140.67 110.971C140.159 120.592 136.564 124.674 132.072 125.26C131.475 125.338 132.31 128.767 131.791 129.217C128.83 131.778 123.61 131.889 115.426 131.963C108.016 132.03 103.238 131.432 99.9174 130.071C99.6635 129.967 99.8921 125.651 99.6295 125.628C95.4696 125.26 90.6776 121.569 89.5133 111.528C85.5711 77.5347 97.4284 70.9647 108.714 65.5486C109.326 65.2547 109.659 64.7429 110.267 64.4519C111.55 63.8381 111.215 65.2509 114.131 65.2509C117.048 65.2509 117.048 64.1436 118.361 64.771C118.851 65.0051 118.932 66.4675 119.419 66.7248C130.968 72.8186 142.083 84.3794 140.67 110.971Z" fill="white"/>
<path fill-rule="evenodd" clip-rule="evenodd" d="M119.42 66.7251C134.671 72.2441 141.754 86.9927 140.671 110.971C139.371 139.72 106.72 113.983 117.605 89.2166C120.198 83.316 123.606 108.299 123.643 108.404C124.511 110.861 127.163 112.766 129.845 113.785C129.845 113.785 131.046 96.4687 128.959 88.3043C126.996 80.6252 119.42 66.7251 119.42 66.7251Z" fill="white"/>
<path fill-rule="evenodd" clip-rule="evenodd" d="M109.598 61.0454C109.598 61.0454 110.027 62.3301 109.878 63.1241C109.729 63.918 108.819 65.2027 108.819 65.2027C108.819 65.2027 83.5026 72.9252 89.3654 111.466C95.887 139.416 118.751 121.239 114.784 98.9525C114.619 82.4035 110.873 88.0065 108.058 106.243C107.37 110.704 98.9089 111.971 98.9089 111.971" fill="white"/>
<path d="M121.54 52.1433C122.828 52.1433 123.872 51.2892 123.872 50.2357C123.872 49.1822 122.828 48.3281 121.54 48.3281C120.253 48.3281 119.209 49.1822 119.209 50.2357C119.209 51.2892 120.253 52.1433 121.54 52.1433Z" fill="#FFB61D"/>
<path d="M107.552 52.1433C108.84 52.1433 109.884 51.2892 109.884 50.2357C109.884 49.1822 108.84 48.3281 107.552 48.3281C106.265 48.3281 105.221 49.1822 105.221 50.2357C105.221 51.2892 106.265 52.1433 107.552 52.1433Z" fill="#FFB61D"/>
<path d="M48.9697 223.687C41.4206 223.747 35.4861 224.083 30.4617 224.791C18.3815 226.494 11.1993 230.494 8.01775 238.038C6.39365 241.888 7.17575 245.217 10.1581 247.809C12.7186 250.035 16.8842 251.717 22.5543 252.949L22.8709 253.017C32.5708 255.077 46.3432 255.821 63.8083 255.56L64.8822 255.542C73.0867 255.401 81.4994 255.064 91.6254 254.52L101.707 253.948C105.249 253.744 108.898 253.534 110.197 253.465L111.954 253.374C115.686 253.188 118.091 253.119 119.576 253.166L121.241 253.229C145.309 254.11 164.091 252.906 176.175 250.069C181.687 248.775 185.631 247.17 187.836 245.344C190.225 243.366 190.637 240.986 188.866 238.884C183.342 232.325 174.276 228.62 159.627 226.645L158.871 226.544C146.7 224.965 131.563 224.48 102.797 224.461L98.658 224.457C93.0605 224.441 87.7017 224.364 80.5884 224.212L63.0901 223.814C57.8529 223.705 54.9073 223.671 51.6248 223.676L48.9697 223.687Z" fill="white"/>
<path d="M98.5722 254.549C148.457 254.549 188.896 250.328 188.896 245.121C188.896 239.914 148.457 235.693 98.5722 235.693C48.6876 235.693 8.24805 239.914 8.24805 245.121C8.24805 250.328 48.6876 254.549 98.5722 254.549Z" fill="#E7EAEE"/>
<path d="M109.903 52.8088C110.004 52.3516 112.091 52.7104 112.679 53.4912L112.86 53.7333C113.407 54.4584 113.74 54.6871 114.446 54.6871C115.348 54.6871 115.655 54.5254 116.167 53.8541L116.304 53.6699C116.9 52.8547 118.999 52.2628 119.159 52.7031C119.318 53.1434 119.09 53.6295 118.65 53.7888C118.32 53.9082 118.132 54.0647 117.81 54.4865L117.659 54.6899C116.779 55.8949 116.047 56.3828 114.446 56.3828C113.146 56.3828 112.393 55.8958 111.589 54.8632L111.323 54.5103L111.203 54.3541C110.938 54.0188 110.777 53.8832 110.589 53.8297L110.548 53.8194C110.091 53.7185 109.802 53.266 109.903 52.8088Z" fill="#00160A"/>
<path d="M111.551 40.2029C110.541 39.8939 109.62 39.8053 109.088 39.87C108.515 39.9396 107.79 40.2351 107.122 40.5077C106.587 40.726 106.087 40.9296 105.731 40.9909C105.376 41.0517 104.845 41.0319 104.326 41.0127C103.671 40.9883 103.038 40.9647 102.812 41.1057C102.408 41.3583 103.012 41.7664 103.365 41.8132C104.587 41.9748 105.476 42.0132 106.066 41.919C106.589 41.8354 107.061 41.6906 107.702 41.4446L108.371 41.1899C108.816 41.0244 108.931 40.9977 109.088 40.9941L109.198 40.9944C109.646 41.0056 110.307 41.1399 111.164 41.402C111.504 41.5061 111.867 41.322 111.974 40.9909C112.081 40.6598 111.892 40.307 111.551 40.2029Z" fill="#00160A"/>
<path d="M114.05 49.301C114.528 47.904 114.805 41.0217 114.279 41.0162C113.752 41.0107 113.32 41.4333 113.315 41.96C113.307 42.7006 113.312 43.411 113.316 44.077C113.329 46.076 113.34 47.6754 113.006 48.4929L112.934 48.6616C112.503 49.7331 112.382 50.6449 113.536 50.8582C114.224 50.9856 117.318 49.2309 117.14 48.7352C116.962 48.2395 116.415 47.9821 115.92 48.1603L115.79 48.2065C115.495 48.3097 115.11 48.6318 114.764 48.9218C114.456 49.1794 114.179 49.4117 114.022 49.4427L113.997 49.4472L114.05 49.301Z" fill="#00160A"/>
<path d="M117.967 40.2029C118.977 39.8939 119.898 39.8053 120.43 39.87C121.004 39.9396 121.728 40.2351 122.397 40.5077C122.932 40.726 123.431 40.9296 123.788 40.9909C124.142 41.0517 124.674 41.0319 125.192 41.0127C125.847 40.9883 126.48 40.9647 126.706 41.1057C127.111 41.3583 126.506 41.7664 126.153 41.8132C124.932 41.9748 124.042 42.0132 123.453 41.919C122.93 41.8354 122.458 41.6906 121.817 41.4446L121.147 41.1899C120.702 41.0244 120.587 40.9977 120.43 40.9941L120.32 40.9944C119.872 41.0056 119.211 41.1399 118.354 41.402C118.014 41.5061 117.651 41.322 117.544 40.9909C117.437 40.6598 117.627 40.307 117.967 40.2029Z" fill="#00160A"/>
<path d="M123.424 44.9956C123.691 44.5411 123.538 43.9567 123.084 43.6903C122.924 43.5964 122.796 43.7747 122.604 44.045C122.25 44.5411 121.675 45.3469 120.27 45.3469C118.854 45.3469 118.273 44.5335 117.919 44.0387C117.731 43.775 117.607 43.6017 117.456 43.6903C117.002 43.9567 116.849 44.5411 117.116 44.9956C117.788 46.1422 118.881 46.7387 120.27 46.7387C121.659 46.7387 122.752 46.1422 123.424 44.9956Z" fill="#00160A"/>
<path d="M111.246 43.7116C111.689 43.9969 111.817 44.5871 111.532 45.0299C110.802 46.1637 109.635 46.739 108.151 46.739C106.656 46.739 105.501 46.1532 104.821 44.9969C104.554 44.5429 104.451 43.9303 105.16 43.6913C105.469 43.5868 105.783 43.889 106.171 44.2623C106.67 44.7434 107.292 45.3426 108.187 45.3426C109.878 45.3426 110.477 44.4947 110.819 44.0109C110.991 43.7674 111.098 43.6161 111.246 43.7116Z" fill="#00160A"/>
<path fill-rule="evenodd" clip-rule="evenodd" d="M114.269 0.202746C108.924 1.15607 104.831 5.20526 104.031 11.1872C103.993 11.4716 103.968 11.749 103.956 12.0193C103.03 12.3098 100.286 13.1955 100.362 13.472C100.432 13.7294 102.865 13.1509 103.962 12.8762C104.121 15.4989 105.603 17.3791 108.099 18.5295C108.735 18.8223 109.418 19.0627 110.143 19.2565C107.563 20.0692 104.926 21.5559 102.842 23.5986C98.9926 27.373 97.2082 32.6966 98.1583 39.4614C98.1669 39.5224 98.1757 39.5835 98.1847 39.6446C95.1135 38.6986 93.245 39.954 93.245 43.2736C93.245 46.604 98.1149 48.4757 100.175 47.1217C102.251 52.6195 105.484 57.7022 108.735 60.6445C108.636 60.8574 108.615 61.1069 108.695 61.3471C108.934 62.0633 109.006 62.6038 108.942 62.9484L108.928 63.0114C108.855 63.3148 108.644 63.7478 108.29 64.289L108.222 64.3905L108.023 64.453C91.0038 69.9188 84.4912 85.7584 88.4236 111.609L88.4377 111.683L88.5102 111.988C90.4077 119.848 93.9995 124.435 98.4735 125.623C98.4728 125.645 98.4728 125.666 98.4735 125.688C99.2553 152.166 99.9388 173.263 100.524 188.98L100.736 194.561L100.948 199.851C101.248 207.122 101.517 212.712 101.755 216.624L101.907 219.024C102.169 222.951 102.321 223.816 102.882 224.212L102.937 224.249L102.978 224.274C103.099 224.344 103.248 224.406 103.425 224.462C103.217 224.461 103.007 224.461 102.797 224.461L98.658 224.457C93.0605 224.441 87.7017 224.364 80.5884 224.212L63.0901 223.814C57.8529 223.705 54.9073 223.671 51.6248 223.676L48.9697 223.687C41.4206 223.747 35.4861 224.083 30.4617 224.792C18.3815 226.494 11.1993 230.494 8.01775 238.038C6.39365 241.888 7.17575 245.217 10.1581 247.809C12.7186 250.035 16.8842 251.717 22.5543 252.949L22.8709 253.017C32.5708 255.077 46.3432 255.821 63.8083 255.56L64.8822 255.542C73.0867 255.401 81.4994 255.064 91.6254 254.52L101.707 253.948C105.249 253.744 108.898 253.534 110.197 253.465L111.954 253.374C115.686 253.188 118.091 253.119 119.576 253.166L121.241 253.229C145.309 254.11 164.091 252.906 176.175 250.069C181.687 248.775 185.631 247.17 187.836 245.344C190.225 243.366 190.637 240.986 188.866 238.884C183.342 232.325 174.276 228.62 159.627 226.645L158.871 226.545C148.377 225.183 135.677 224.635 113.936 224.497L114.055 224.489C114.596 224.453 115.021 224.014 115.042 223.473L116.615 179.351C116.659 179.352 116.705 179.351 116.752 179.348C118.807 179.206 120.199 177.936 122.734 173.159L123.036 172.584L123.381 171.916C123.999 170.775 125.641 169.002 127.048 167.482C127.972 166.485 128.795 165.596 129.16 165.068C129.918 165.216 131.02 165.332 132.465 165.417L132.645 165.427L131.499 168.211L131.477 168.27C131.334 168.706 131.566 169.184 132.007 169.335C147.134 174.538 155.357 170.477 157.481 159.546C160.511 143.954 152.312 136.12 133.419 136.32L133.718 126.339C134.879 126.175 135.965 125.708 136.94 124.917C139.698 122.678 141.306 118.039 141.624 111.014C142.702 87.147 135.736 72.1206 120.677 66.1804L120.165 65.9831L120.117 65.8484C119.852 65.098 119.674 64.4903 119.584 64.0328L119.564 63.93C119.469 63.3936 119.469 62.4971 119.575 61.2702C119.589 61.1174 119.565 60.97 119.512 60.8366C123.222 57.835 126.842 52.4428 128.609 46.8658L128.654 46.8812C128.672 46.8876 128.692 46.8943 128.711 46.9013L129.525 47.1907C130.059 47.3704 130.506 47.4861 130.964 47.5462C133.473 47.8757 135 46.2404 135 42.4453C135 41.0109 134.309 40.0186 133.018 39.7923C132.174 39.6444 131.114 39.8401 129.798 40.3531C130.426 32.1042 128.493 26.2039 124.554 22.5165C123.07 21.1273 121.333 20.1095 119.531 19.4521C121.206 19.0037 122.886 18.245 124.191 17.2068C127.186 14.8248 128.131 11.2422 126.413 6.58946L132.254 5.28604L132.301 5.2698C132.497 5.18868 132.546 4.7021 132.546 4.3386C132.546 3.97511 132.248 3.55871 132.023 3.62263L126.047 5.68101C124.124 1.41323 119.28 -0.69119 114.269 0.202746ZM105.153 225.736H105.44C106.816 225.738 108.16 225.744 109.473 225.753C109.372 226.905 109.347 228.308 109.448 229.335H105.456C105.417 228.514 105.314 226.993 105.153 225.736ZM103.983 225.735C103.892 226.462 103.818 227.282 103.751 228.019C103.699 228.598 103.651 229.126 103.603 229.517C103.57 229.543 103.539 229.571 103.51 229.602C101.279 231.973 98.9698 233.516 96.5842 234.248L96.1956 234.364C94.1555 234.96 90.3349 235.9 90.4106 235.879C88.7457 236.354 87.9393 236.9 87.656 238.042C87.1895 239.922 89.0919 240.748 94.0263 240.78L94.402 240.781C95.2122 240.78 95.9273 240.697 97.5019 240.448L98.7269 240.253C99.9623 240.061 100.693 239.978 101.363 239.972L101.652 239.974C102.004 239.983 102.367 240.019 103.161 240.121L104.13 240.247C104.692 240.319 105.088 240.363 105.507 240.397C107.242 240.541 108.566 240.42 109.676 239.888C112.548 238.51 112.898 235.083 111.018 229.894C111.016 229.888 111.013 229.882 111.011 229.876C111.021 229.818 111.026 229.759 111.026 229.699V225.765C135.004 225.977 148.364 227.265 159.344 228.745L160.188 228.862C173.863 230.798 182.231 234.297 187.245 240.249C189.269 242.652 185.618 245.675 175.691 248.006C163.696 250.822 144.83 252.01 120.581 251.083L119.845 251.054C118.109 250.985 115.189 251.078 110.35 251.334L105.901 251.584C104.208 251.681 102.259 251.793 100.417 251.899C97.6632 252.058 95.1469 252.203 94.0758 252.263L91.5135 252.403C81.8313 252.924 73.7229 253.254 65.8689 253.404L64.8457 253.423C47.0193 253.73 33.0129 253.004 23.311 250.944C12.0464 248.553 6.68863 244.633 9.12289 238.861C11.93 232.205 19.2092 227.725 30.4165 226.091L30.7575 226.042C34.1072 225.57 37.889 225.644 42.319 225.731C44.5233 225.774 46.8881 225.82 49.4401 225.804L51.6271 225.795C55.1768 225.79 78.8375 225.446 78.8375 225.446C87.121 225.63 93.0173 225.718 99.3134 225.731L103.983 225.735ZM118.084 61.8688C116.676 62.7632 115.288 63.271 114.016 63.271C113.018 63.271 111.947 62.9057 110.849 62.2445C110.887 62.6246 110.878 62.9758 110.817 63.2999C110.687 63.9924 110.278 65.2191 109.599 66.178C109.58 66.2045 109.56 66.23 109.539 66.2543C110.449 66.7701 111.856 67.3058 113.799 67.0335C115.939 66.7336 117.122 65.9731 117.84 65.382C117.728 64.2462 117.872 62.8994 118.084 61.8688ZM118.074 66.5184C117.185 67.6804 115.688 68.9411 113.799 68.9411C110.952 68.9411 109.082 68.2346 108.474 66.7357C92.7284 71.8482 85.7903 86.0709 89.3494 110.567L89.4558 111.284L89.5138 111.528C91.6979 120.599 96.8504 124.584 101.924 123.962L102.079 123.942C106.622 123.303 111.05 118.93 112.235 113.947L112.41 113.197C113.295 109.351 113.831 105.95 113.831 103.156L113.829 101.996C113.799 95.9086 113.538 91.4028 113.211 89.4157L113.188 89.2801L113.151 89.3783C113.013 89.7527 112.865 90.2113 112.71 90.7518L112.663 90.9164C111.947 93.4547 111.107 97.5806 110.153 103.313C109.451 107.526 98.1835 112.814 98.0149 112.315C97.9623 112.159 98.8855 111.523 100.198 110.619H100.199L100.205 110.615C100.716 110.263 101.286 109.87 101.88 109.45C101.859 109.41 101.838 109.369 101.816 109.325C100.155 105.995 99.1329 103.073 98.755 100.548C98.3813 98.0509 99.2533 88.0039 99.8072 88.0067L99.8769 88.0093C100.156 88.0288 100.095 89.3308 100.004 91.2608C99.9045 93.3643 99.7701 96.2138 100.003 98.9621C100.257 101.946 101.58 104.952 102.499 107.04C102.753 107.617 102.975 108.124 103.137 108.54C105.565 106.738 108 104.63 108.271 102.999L108.488 101.715C109.346 96.686 110.112 92.9753 110.785 90.5489L110.827 90.3989C111.195 89.0916 111.539 88.1576 111.879 87.5636C112.412 86.6301 113.22 86.1443 114.07 86.8198C115.013 87.5701 115.485 90.7982 115.658 96.6833C115.803 94.0472 116.043 91.9137 116.368 90.3157C116.64 88.9802 116.97 88.0136 117.383 87.4025C117.969 86.5347 118.885 86.2387 119.719 86.8214L119.775 86.8625C121.565 88.2329 122.771 94.8798 122.842 103.524L122.845 104.247L122.862 104.348C123.956 108.479 126.221 110.888 128.277 112.33C132.471 105.456 130.03 92.7227 128.994 87.3212C128.696 85.7646 128.514 84.8169 128.642 84.7938C129.218 84.6897 129.769 85.0721 129.873 85.6481C131.199 92.9772 131.881 98.3959 131.918 101.931C131.955 105.508 131.356 109.277 130.125 113.238C130.107 113.295 130.085 113.35 130.059 113.402C130.686 113.724 131.237 113.957 131.652 114.133C132.188 114.359 132.499 114.491 132.459 114.596C132.271 115.088 124.669 115.088 120.95 104.482C120.937 104.446 120.937 104.393 120.938 104.345V104.328C120.938 99.9048 120.635 95.96 120.102 92.9506C119.86 91.5804 119.577 90.4481 119.274 89.6171L119.234 89.5079C119.099 89.1517 118.966 88.8727 118.853 88.6794L118.848 88.6709L118.824 88.7177C118.625 89.1292 118.42 89.797 118.237 90.6959L118.207 90.8455C118.115 91.3199 117.999 91.8456 117.873 92.4214C117.327 94.9054 116.577 98.3217 116.56 102.579L116.559 103.214C116.559 110.641 121.779 119.633 127.714 123.157C133.881 126.818 139.163 123.219 139.718 110.928C140.785 87.3251 134.268 71.5103 119.096 67.6218C118.601 67.4948 118.275 67.0847 118.074 66.5184ZM115.638 105.489C115.422 108.125 114.871 111.107 114.091 114.389C112.73 120.107 107.697 125.078 102.345 125.831C101.42 125.961 100.519 125.968 99.6463 125.854C99.7002 126.633 99.7615 127.755 99.829 129.17C100.02 129.143 100.22 129.168 100.409 129.253C101.806 129.881 109.536 130.749 116.251 130.883L116.75 130.892C124.738 131.012 130.459 130.124 131.533 128.494L131.598 126.317C130.305 126.122 128.954 125.608 127.588 124.797C121.68 121.289 116.536 113.044 115.638 105.489ZM95.1526 43.2736C94.9873 40.8035 96.9879 40.9657 98.4642 41.2472C98.7791 42.8121 99.2167 44.3921 99.7518 45.9491L99.6765 45.947C98.0363 45.9015 95.3234 45.8262 95.1526 43.2736ZM129.68 41.6474C129.65 41.9327 129.617 42.2207 129.581 42.5113C129.451 43.5625 129.238 44.6278 128.953 45.692C130.864 45.9183 134.064 46.0432 133.466 41.7984C133.233 40.1453 131.103 41.0418 129.68 41.6474ZM113.731 18.5667C114.547 18.5182 115.392 18.5471 116.247 18.6546C118.412 18.628 121.652 17.6403 123.136 15.8797C128.959 8.97268 120.885 1.14766 114.614 2.15911C109.957 2.91019 105.563 6.18018 104.864 11.4118C104.528 13.9249 106.169 17.927 113.731 18.5667ZM101.277 168.657C102.163 194.636 103.116 222.603 103.546 223.351C103.619 223.482 104.724 223.493 105.601 223.501H105.602H105.606C105.836 223.503 106.05 223.505 106.225 223.509L106.697 223.517H107.233C108.53 223.511 110.167 223.45 112.139 223.335L112.961 223.285L116.202 146.05C116.113 144.293 114.492 142.285 113.402 140.935C112.754 140.132 112.293 139.561 112.456 139.415C112.887 139.03 116.256 142.808 116.877 144.144C116.888 144.189 116.902 144.25 116.916 144.324C117.299 143.321 117.837 142.27 118.538 141.177C118.791 140.783 121.996 136.336 119.709 140.921C114.812 150.738 120.359 154.728 130.042 154.763L130.078 154.764H130.082C130.163 154.764 130.222 154.765 130.354 154.748C134.124 154.269 138.216 154.49 141.439 154.911C144.606 155.324 150.083 158.409 143.884 160.15C142.403 160.566 140.023 160.315 137.276 159.718L136.531 159.594L132.167 168.422L132.921 168.585C146.147 172.79 153.817 168.866 155.758 159.516L155.817 159.222C158.585 144.972 152.642 136.154 133.396 137.094L133.371 137.931C133.353 138.516 132.864 138.976 132.279 138.959C131.694 138.941 131.235 138.452 131.252 137.867L131.271 137.232C124.532 137.727 128.946 136.881 131.293 136.503L131.452 131.177C128.677 132.589 123.564 133.116 116.766 133.012L116.209 133.002C109.623 132.871 102.254 132.08 99.9274 131.331C100.28 139.395 100.767 153.695 101.277 168.655V168.657ZM134.644 160.573L133.071 164.393C131.981 164.227 131.229 164.034 130.665 163.889C130.478 163.841 130.312 163.798 130.161 163.764C129.956 162.246 129.961 161.145 130.152 160.495C130.319 159.93 130.56 159.612 130.873 159.469C131.549 159.69 132.345 159.93 133.26 160.19L133.949 160.383L134.644 160.573ZM128.728 163.87C128.811 163.815 128.898 163.774 128.989 163.746C128.76 162.524 128.759 160.665 128.95 160.016C129.08 159.574 129.191 159.226 129.339 158.946C129.121 158.871 128.79 158.701 128.382 158.492C126.504 157.531 123.003 155.739 121.461 158.551C118.859 163.296 116.574 178.202 117.239 178.207C118.185 178.213 120.59 174.848 122.173 171.861L122.243 171.727L122.652 170.933C123.894 168.523 125.879 165.739 128.728 163.87ZM136.153 158.656C135.814 158.596 135.478 158.747 135.296 159.028C135.224 158.984 135.144 158.95 135.057 158.929L129.187 157.479L129.058 157.406C124.595 154.883 121.709 155.097 119.695 157.907C118.981 158.903 118.623 160.156 118.451 161.818L118.431 162.028L118.406 162.315C118.383 162.603 118.365 162.901 118.346 163.268L118.275 164.801L118.261 165.033C118.239 165.394 118.217 165.629 118.185 165.851L118.164 165.982L118.099 166.339L118.06 166.522C118.037 166.621 118.009 166.735 117.973 166.875L117.869 167.272L117.232 169.57C117.119 170.095 117.012 170.588 116.911 171.051L117.593 151.914C119.738 154.575 124.294 155.977 130.804 155.573L131.34 155.542C131.592 155.53 131.847 155.516 132.103 155.502H132.111L132.158 155.499H132.168C135.002 155.346 138.079 155.181 140.866 155.8C147.817 157.344 144.974 158.763 144.362 159.068L144.325 159.087L144.307 159.096L144.227 159.134C143.248 159.569 140.95 159.481 136.61 158.735L136.153 158.656ZM90.6438 237.154L90.8752 237.086C90.7632 237.12 99.1465 235.932 103.633 231.265C104.48 230.384 109.619 231.031 109.619 231.031L109.624 231.044C111.559 234.248 111.838 237.578 109.411 238.56C108.554 238.907 107.107 239.252 105.647 239.131L105.434 239.113L105.135 239.083C104.929 239.061 104.708 239.035 104.448 239.002L103.004 238.816C102.244 238.723 101.909 238.7 101.45 238.7C100.648 238.7 96.7939 239.266 96.7939 239.266C95.6177 239.446 95.0187 239.508 94.3996 239.509C91.9222 239.513 90.3617 238.904 89.5943 238.591L89.5212 238.56C89.4525 238.529 89.3965 238.498 89.3527 238.47L89.3055 238.436L89.3017 238.451C89.3906 238.092 89.6907 237.444 90.6438 237.154ZM128.147 42.5113C128.389 40.5494 128.469 38.7154 128.405 37.0105C125.467 38.1768 122.527 37.9627 120.028 36.4913C117.975 35.2823 116.126 33.3611 114.473 30.7377L114.413 30.6406L114.358 30.7462C113.023 33.2807 111.3 35.3049 109.192 36.8086L108.98 36.9573C106.333 38.7787 103.228 39.5917 99.6956 39.3986L99.7097 39.4614C101.724 48.3284 108.725 61.9898 114.132 62.3172C116.2 62.4425 119.201 59.1022 121.984 55.4811C124.988 51.5712 127.595 46.9792 128.147 42.5113ZM123.25 23.9091C125.896 26.3855 127.764 30.1687 128.281 35.2262C128.25 35.2361 128.219 35.2479 128.188 35.2616C125.591 36.4259 123.046 36.7244 120.889 35.454C118.752 34.1959 116.81 31.5743 115.077 28.4205C114.737 27.8021 113.835 27.8453 113.555 28.4933C113.5 28.622 113.439 28.767 113.373 28.9259C112.607 30.7579 111.067 34.4406 107.726 36.3847C105.294 37.8 101.706 38.1583 99.9336 38.3352L99.9316 38.3354L99.9288 38.3357C99.7708 38.3515 99.6273 38.3658 99.5004 38.3793C99.4345 37.9668 99.3847 37.5567 99.3503 37.1497C101.375 36.7831 105.63 35.3818 107.34 34.3073C109.51 32.9443 110.175 31.5533 111.279 29.2407C111.482 28.8168 111.699 28.3619 111.943 27.8707C112.154 27.4465 112.653 24.6199 111.469 26.7694C111.397 26.9 111.321 27.0426 111.239 27.1956V27.1965L111.238 27.1975C110.006 29.5008 107.503 34.18 99.301 36.3144C99.1416 31.5657 101.061 27.3104 103.868 24.5586C106.489 21.9886 110.454 20.2893 113.467 19.9971C116.636 19.6896 120.467 21.3041 123.25 23.9091Z" fill="#00160A"/>
<path fill-rule="evenodd" clip-rule="evenodd" d="M72.8035 164.768C73.3111 159.359 75.8282 154.005 79.8172 150.329C82.7217 147.652 86.8843 145.411 90.7686 147.328C96.7443 150.894 98.349 158.214 97.7465 164.768C96.9995 172.891 93.205 177.9 85.9152 180.892C81.8077 182.578 79.0772 184.801 76.8476 188.676C75.064 191.774 74.0241 195.653 71.7829 198.462C68.4322 202.66 64.2391 204.527 59.0707 203.829C58.0463 203.829 54.7464 206.902 53.7151 208.763C51.022 213.623 48.7105 218.755 47.6495 224.243C47.34 225.844 47.559 231.836 46.4658 232.992C44.4668 235.107 45.0524 231.034 45.1719 229.805C46.1648 219.625 49.8192 210.953 55.1253 202.395C53.4953 200.266 53.2599 194.848 53.772 193.139C55.1253 187.84 71.7818 175.657 72.8035 164.768Z" fill="white"/>
<path fill-rule="evenodd" clip-rule="evenodd" d="M90.1032 148.312L90.1312 148.328C95.3693 151.454 97.2851 155.823 96.9089 165.965C96.5137 176.621 92.6486 178.51 85.7096 181.425L85.4983 181.513C81.6031 183.111 79.1465 185.195 77.1369 188.687L76.9758 188.972C76.6246 189.605 76.3109 190.251 75.8686 191.238L75.0763 193.035C74.007 195.447 73.3257 196.716 72.3238 197.971C69.0351 202.092 64.9217 203.852 59.9623 203.183L59.9151 203.174L59.8694 203.159C59.1009 202.856 56.4879 205.514 55.3121 207.636C52.4562 212.79 50.6119 217.285 49.6939 221.809L49.6314 222.125C49.5721 222.431 49.5332 222.902 49.4878 223.798L49.4252 225.123C49.4103 225.432 49.3963 225.701 49.3815 225.955L49.3726 226.106C49.2233 228.573 48.9784 229.981 48.4123 230.579C47.6562 231.379 46.9582 231.53 46.5756 230.835C46.358 230.44 46.3071 229.802 46.3538 228.904L46.3725 228.604C46.3836 228.451 46.3971 228.292 46.4134 228.121L46.5429 226.861C47.4598 218.127 50.4436 210.202 55.7118 201.613L55.8143 201.447L55.7491 201.343C54.488 199.262 54.0284 194.601 54.6327 192.584C55.6657 189.138 57.709 186.349 61.427 182.672L62.0744 182.034C68.361 175.816 70.4697 172.609 72.1976 165.765L72.7922 163.397L72.8072 163.339C74.2263 157.868 75.7157 154.612 78.5322 152.016C81.9113 148.902 86.6616 146.614 90.1032 148.312ZM79.0743 152.605C76.4905 154.985 74.6639 157.994 73.3225 163.005L73.0342 164.114L72.6328 165.723C72.1976 170.036 70.8527 175.118 62.6364 182.604L62.1996 183.034C58.4356 186.728 56.4031 189.464 55.399 192.814C54.8283 194.718 55.3508 199.545 56.6105 201.19C56.7115 201.322 56.7204 201.503 56.6328 201.644C51.2752 210.285 48.2571 218.205 47.3392 226.939L47.2265 228.027L47.1951 228.356C47.1812 228.514 47.1698 228.662 47.1609 228.805L47.1528 228.946C47.1139 229.693 47.157 230.233 47.2764 230.45L47.2823 230.464L47.268 230.468C47.374 230.445 47.5701 230.306 47.8309 230.03C48.1931 229.647 48.4274 228.345 48.5633 226.231L48.5916 225.756L48.6959 223.62C48.7383 222.81 48.7767 222.356 48.8368 222.022L48.8459 221.973C49.7595 217.248 51.6526 212.59 54.6123 207.248L54.6772 207.132C56.0611 204.701 58.7494 201.979 60.0989 202.392L60.1071 202.395L60.0692 202.39C64.7428 203.021 68.5811 201.378 71.6985 197.472C72.6734 196.25 73.3415 194.989 74.4384 192.499L75.0038 191.213C75.6003 189.869 75.9692 189.112 76.4435 188.288C78.5057 184.704 81.0449 182.517 84.9749 180.864L85.1946 180.773C91.9972 177.981 95.4272 173.342 96.1123 165.891L96.1318 165.669C96.7095 158.788 94.6441 152.854 89.876 149.908L89.7355 149.823L89.7492 149.83C86.6595 148.305 82.2361 149.69 79.0743 152.605Z" fill="#00160A"/>
<path fill-rule="evenodd" clip-rule="evenodd" d="M47.639 206.205C45.1867 206.582 43.0501 205.146 42.2275 202.753C41.5167 200.685 41.4473 198.279 40.64 196.324C40.0839 194.977 39.1993 193.833 38.1177 192.866C35.2643 190.315 32.2855 189.677 31.4349 185.444C30.7681 182.125 31.5961 175.361 36.228 176.035C39.4503 176.507 42.0544 180.812 43.5552 183.528C45.4124 186.888 47.1453 190.489 48.1211 194.18C49.7287 200.26 49.946 207.009 49.9659 213.236C49.9683 213.986 50.1249 223.152 49.0532 223.002C47.9915 222.853 48.6639 213.339 48.5733 211.369" fill="white"/>
<path fill-rule="evenodd" clip-rule="evenodd" d="M82.5524 155.338C83.3227 155.733 83.1717 157.004 82.25 159.273C81.3266 161.546 79.965 163.257 78.5738 164.036C77.1508 164.832 75.8512 164.504 75.492 163.107C75.168 161.848 77.3843 158.696 79.7376 156.612C80.9624 155.527 81.9185 155.013 82.5524 155.338ZM80.268 157.211C78.3792 159.494 76.0512 162.47 76.2667 163.308C76.4775 164.128 77.1726 164.303 78.1832 163.738C79.4016 163.056 80.8679 161.121 81.7274 159.005L81.8539 158.687C82.6399 157.172 82.6377 155.804 82.1873 155.65C81.7586 155.503 80.8296 156.532 80.268 157.211ZM40.5226 181.477C40.8368 180.618 39.8924 179.561 38.1511 178.799C36.2811 177.981 35.0647 177.922 35.0707 178.94C35.0748 179.628 36.0028 180.589 37.4185 181.454C38.8536 182.33 40.1935 182.377 40.5226 181.477ZM35.8821 178.994C35.9145 178.99 35.9541 178.987 36.0032 178.987L36.0555 178.989C36.1079 178.991 36.1718 178.99 36.2489 178.987C36.7284 178.974 37.7149 178.946 39.5601 179.861C39.9556 180.057 40.2087 181.1 40.1713 181.202C40.081 181.449 38.9017 181.822 37.8354 181.171C37.3911 180.9 37.0012 180.421 36.684 180.031H36.6839H36.6837C36.5502 179.867 36.4297 179.719 36.3234 179.609C36.084 179.361 35.9383 179.146 35.8893 179.016L35.8821 178.994ZM38.9116 187.081L39.105 187.394C39.9506 188.774 40.4621 189.751 40.6676 190.369C40.9421 191.194 40.6482 191.778 39.8842 191.528C39.1875 191.3 37.8449 190.172 36.1751 188.525C34.8243 187.192 34.1484 185.166 34.6666 184.196C35.3708 182.877 37.0142 184.03 38.9116 187.081ZM35.3723 184.172C35.0526 184.771 35.6107 186.844 36.737 187.955L37.1151 188.324C37.4087 188.608 37.7233 188.926 38.0352 189.242H38.0354C38.9937 190.212 39.9273 191.157 40.1516 190.992C40.4128 190.8 39.5624 188.999 38.6322 187.503C37.7353 186.061 36.5596 184.73 35.9649 184.312C35.578 184.041 35.4393 184.047 35.3723 184.172ZM46.8387 200.092C47.0658 201.601 46.8627 202.727 46.101 202.883C45.3179 203.043 44.486 202.001 43.5584 199.873C42.673 197.842 42.9046 195.918 44.0632 195.627C45.258 195.326 46.3434 196.991 46.8149 199.939L46.8387 200.092ZM44.2585 196.402C43.7412 196.533 43.4728 197.889 44.1422 199.631C44.6681 200.999 46.101 204.248 46.4801 201.705C46.5378 201.318 46.538 200.812 46.4477 200.212L46.3992 199.909C45.9869 197.485 44.7877 196.269 44.2585 196.402ZM90.9018 173.329C92.8609 171.192 94.0209 168.529 93.0569 167.364C91.9083 165.976 86.6071 170.779 86.6763 173.177C86.7167 174.577 87.3259 175.296 88.3355 175.112C89.084 174.976 89.9963 174.317 90.9018 173.329ZM92.4437 167.478L92.4713 167.515C92.9964 168.276 92.3829 170.966 90.7121 172.788C89.9145 173.658 88.7264 174.628 88.1922 174.725C87.7461 174.806 87.5038 174.521 87.476 173.554C87.4504 172.667 88.438 170.811 89.8839 169.501C90.0438 169.356 90.2349 169.161 90.4422 168.949H90.4423C91.0708 168.307 91.8483 167.513 92.3579 167.507C92.4388 167.506 92.4563 167.497 92.4437 167.478ZM67.8583 198.25C67.4114 200.192 66.529 201.456 65.3338 202.149C64.5236 202.619 63.7713 202.757 62.9091 202.757C61.0595 202.757 60.2015 201.933 60.5234 200.595C60.7648 199.591 61.6936 198.344 62.9309 197.257C64.1646 196.173 65.4879 195.438 66.4496 195.378C67.7639 195.296 68.2937 196.357 67.8583 198.25ZM66.4994 196.176C65.7554 196.223 64.5715 196.88 63.4589 197.858C62.3342 198.846 61.4962 199.971 61.3012 200.782C61.1146 201.558 61.5304 202.357 62.9091 202.357C63.643 202.357 64.2682 202.242 64.9325 201.857C65.929 201.279 67.0799 199.804 67.4786 198.07C67.8103 196.629 67.1636 196.135 66.4994 196.176ZM64.437 189.473C66.0928 188.097 66.8851 186.651 66.4081 185.856C65.8649 184.949 64.4422 185.539 63.0009 187.122C62.0994 188.113 60.8366 189.827 60.464 190.674C60.3122 191.018 60.2607 191.276 60.3768 191.51C60.5523 191.865 60.902 191.875 61.3107 191.707C61.8325 191.493 62.7148 190.88 64.0188 189.817L64.437 189.473ZM65.2564 186.332C65.4318 186.26 65.5713 186.234 65.6623 186.244C65.7048 186.249 65.7153 186.256 65.722 186.267C65.7321 186.284 65.7502 186.306 65.7724 186.333C65.8844 186.471 66.1 186.735 65.913 187.076C65.6189 187.613 64.6807 188.63 63.9257 189.258C62.9175 190.096 61.8608 190.684 61.2317 191.033L61.2314 191.034C61.1139 191.099 61.0113 191.156 60.9267 191.205L60.8734 191.235L60.9325 191.124C61.3672 190.33 62.7558 188.6 63.5036 187.76L63.5926 187.661C64.2208 186.971 64.8003 186.521 65.2564 186.332ZM82.9406 178.225C83.4175 179.021 82.6253 180.467 80.9695 181.843L80.5512 182.187C79.2473 183.25 78.3649 183.863 77.8431 184.077C77.4344 184.244 77.0848 184.235 76.9092 183.88C76.7931 183.645 76.8446 183.388 76.9964 183.043C77.3691 182.197 78.6319 180.483 79.5334 179.492C80.9746 177.908 82.3974 177.319 82.9406 178.225ZM82.1948 178.614C82.1037 178.603 81.9643 178.629 81.7888 178.702C81.3328 178.891 80.7533 179.34 80.125 180.031L80.0361 180.129C79.2882 180.97 78.2997 182.7 77.8649 183.493L77.8059 183.605L77.8592 183.575C78.3962 183.264 79.2614 182.622 80.4582 181.627C81.2132 181 82.1513 179.983 82.4455 179.446C82.6325 179.105 82.4169 178.84 82.3049 178.703C82.2827 178.676 82.2645 178.653 82.2544 178.637C82.2477 178.625 82.2373 178.619 82.1948 178.614ZM72.4913 179.299C74.1471 177.923 74.9393 176.478 74.4624 175.682C73.9192 174.776 72.4964 175.365 71.0552 176.949C70.1537 177.939 68.8909 179.653 68.5182 180.5C68.3664 180.845 68.3149 181.102 68.431 181.337C68.6066 181.691 68.9562 181.701 69.3649 181.534C69.8867 181.32 70.7691 180.707 72.073 179.644L72.4913 179.299ZM73.3106 176.159C73.486 176.086 73.6255 176.06 73.7166 176.071C73.7591 176.076 73.7695 176.082 73.7762 176.093C73.7781 176.097 73.7802 176.1 73.7824 176.104C73.8507 176.217 74.0537 176.553 73.8366 176.949C73.5425 177.486 72.6824 178.845 72.38 179.084C71.4821 179.795 70.3557 180.346 69.6094 180.711C69.3416 180.842 69.1228 180.949 68.981 181.031L68.9277 181.061L68.9867 180.95C69.4215 180.156 70.81 178.426 71.5579 177.586L71.6468 177.487C72.2751 176.797 72.8546 176.347 73.3106 176.159Z" fill="#FFB61D"/>
<path fill-rule="evenodd" clip-rule="evenodd" d="M36.287 175.616C33.947 175.275 31.8781 176.629 31.0181 179.103C30.3424 181.047 30.6337 183.619 31.0173 185.528C31.5092 187.976 32.5341 189.285 34.7915 190.905L36.1482 191.858C36.6167 192.191 37.0011 192.482 37.3688 192.784C37.5285 192.916 37.6829 193.048 37.8331 193.182C38.9249 194.158 39.7393 195.258 40.246 196.486L40.3153 196.658C40.5837 197.346 40.7537 198.028 40.9987 199.3L41.209 200.413C41.4221 201.521 41.5828 202.188 41.8245 202.891C42.7521 205.589 44.711 207.019 47.2773 206.625C47.5087 206.589 48.269 206.646 46.5654 206.301C44.8617 205.956 43.4294 204.952 42.6262 202.616C42.4003 201.958 42.2468 201.32 42.0402 200.247L41.8288 199.127C41.5537 197.7 41.3666 196.978 41.0297 196.162C40.4717 194.811 39.5811 193.608 38.3981 192.55C38.2391 192.408 38.0761 192.268 37.9076 192.13C37.5709 191.853 37.223 191.587 36.8176 191.294L36.405 191.001C36.0632 190.762 35.5422 190.399 35.4367 190.324L35.1437 190.114C33.1471 188.658 31.857 187.513 31.4245 185.361C31.0699 183.596 31.6185 181.178 32.2428 179.382C32.9824 177.253 34.2855 175.757 36.1645 176.031C38.9314 176.436 45.8 186.49 47.6992 192.646C49.2619 197.711 49.6585 205.486 49.5549 212.467L49.5383 213.462L49.5406 214.834C49.5397 215.945 49.5287 216.873 49.4994 217.839L49.4916 218.082C49.4451 219.479 49.3645 220.626 49.2437 221.452C49.2039 221.724 49.1602 221.957 49.1135 222.147L49.0896 222.239L49.0768 222.182C49.024 221.928 48.981 221.595 48.9483 221.19L48.9377 221.052L48.9188 220.761C48.8667 219.858 48.8562 218.703 48.8784 217.26L48.8979 216.252C48.9063 215.881 48.9167 215.483 48.9297 215.02L49.0008 212.356C49.0087 211.943 49.008 211.725 49.0015 211.523L48.9699 210.752C48.9469 210.125 48.9327 209.474 48.9166 208.439L48.8927 206.94C48.8285 203.512 48.7033 201.805 48.295 199.706C48.2334 199.389 48.1661 199.077 48.0928 198.768C47.023 194.264 44.7207 191.022 42.4933 187.049C41.8245 185.856 38.3135 184.029 38.2812 184.261C38.249 184.493 41.2875 185.864 42.2097 187.398C44.1716 190.661 46.2221 194.561 47.2679 198.964C47.3385 199.261 47.4034 199.562 47.4628 199.868L47.5401 200.28C47.8758 202.143 47.9862 203.811 48.0452 206.964L48.0892 209.591C48.1005 210.125 48.113 210.55 48.1303 210.983L48.1558 211.613C48.1614 211.845 48.1589 212.131 48.1441 212.745L48.054 216.072C48.0463 216.398 48.04 216.7 48.0347 217.002L48.0208 217.974C47.9808 221.746 48.1565 223.305 48.9921 223.422C49.6464 223.514 49.8921 222.877 50.0826 221.575C50.2016 220.762 50.2816 219.673 50.3302 218.359L50.339 218.11C50.3745 217.045 50.3874 216.048 50.3884 214.836L50.3875 213.247C50.5668 205.992 49.7356 197.745 48.0854 192.396C46.0957 185.947 39.4966 176.085 36.287 175.616Z" fill="#00160A"/>
<path d="M49.1259 239.574C39.9954 239.574 32.5936 234.07 32.5936 227.281C32.5936 220.492 39.9954 214.988 49.1259 214.988C58.2564 214.988 65.6582 220.492 65.6582 227.281C65.6582 234.07 58.2564 239.574 49.1259 239.574Z" fill="white"/>
<path d="M55.6944 239.574C50.1915 239.574 45.7306 234.07 45.7306 227.281C45.7306 220.492 50.1915 214.988 55.6944 214.988C61.1973 214.988 65.6582 220.492 65.6582 227.281C65.6582 234.07 61.1973 239.574 55.6944 239.574Z" fill="#E7EAEE"/>
<path fill-rule="evenodd" clip-rule="evenodd" d="M34.4883 214.458H65.6883C65.9644 214.458 66.1883 214.681 66.1883 214.958C66.1883 223.503 65.3819 228.823 63.2391 232.517C60.8231 236.682 56.6603 238.658 50.0883 238.658C43.5162 238.658 39.3535 236.682 36.9374 232.517C34.7947 228.823 33.9883 223.503 33.9883 214.958C33.9883 214.681 34.2122 214.458 34.4883 214.458ZM64.3875 215.458H35.3895L35.3897 215.572C35.4278 223.593 35.4235 228.604 37.4024 232.015C39.6225 235.843 43.8474 238.058 50.0883 238.058C56.3291 238.058 60.1541 235.443 62.3741 231.615L62.4487 231.485C64.3474 228.122 64.3283 223.624 64.3849 215.888L64.3875 215.458Z" fill="#00160A"/>
</g>
<defs>
<clipPath id="clip0">
<rect width="218" height="256" fill="white"/>
</clipPath>
</defs>
</svg>
