<?xml version="1.0"?>
<svg xmlns="http://www.w3.org/2000/svg" xmlns:xlink="http://www.w3.org/1999/xlink" xmlns:svgjs="http://svgjs.com/svgjs" version="1.1" width="512" height="512" x="0" y="0" viewBox="0 0 512 512" style="enable-background:new 0 0 512 512" xml:space="preserve" class=""><g><g xmlns="http://www.w3.org/2000/svg"><path d="m256 512-128-256 128-256c141.385 0 256 114.615 256 256s-114.615 256-256 256z" fill="#1da1f2" data-original="#cb2e81" style="" class=""/><path d="m0 256c0-141.385 114.615-256 256-256v512c-141.385 0-256-114.615-256-256z" fill="#1da1f2" data-original="#ff3187" style="" class=""/><path d="m256 452-98-196 98-196c108.248 0 196 87.752 196 196s-87.752 196-196 196z" fill="#dff5ff" data-original="#dff5ff" style="" class=""/><path d="m60 256c0-108.248 87.752-196 196-196v392c-108.248 0-196-87.752-196-196z" fill="#dff5ff" data-original="#ffffff" style="" class=""/><path d="m256 379.6-61.8-123.6 61.8-123.6c68.262 0 123.6 55.338 123.6 123.6s-55.338 123.6-123.6 123.6z" fill="#1da1f2" data-original="#ff3187" style="" class=""/><path d="m132.4 256c0-68.262 55.338-123.6 123.6-123.6v247.2c-68.262 0-123.6-55.338-123.6-123.6z" fill="#1da1f2" data-original="#ff5178" style="" class=""/><path d="m256 307.2-25.6-51.2 25.6-51.2c28.277 0 51.2 22.923 51.2 51.2s-22.923 51.2-51.2 51.2z" fill="#ffd23b" data-original="#ffb24a" style="" class=""/><path d="m204.8 256c0-28.277 22.923-51.2 51.2-51.2v102.4c-28.277 0-51.2-22.923-51.2-51.2z" fill="#ffd23b" data-original="#ffd23b" style="" class=""/></g></g></svg>
