<svg width="218" height="256" viewBox="0 0 218 256" fill="none" xmlns="http://www.w3.org/2000/svg">
<path fill-rule="evenodd" clip-rule="evenodd" d="M89.5704 27.5904C82.8431 32.7196 77.2094 39.0909 72.9576 46.3439C65.9916 44.9535 58.4851 44.6576 50.8849 45.7462C52.7925 37.4589 56.7009 29.6591 62.3473 23.1436C63.6614 21.6346 65.6071 20.8249 67.6037 20.969C75.3739 21.5201 82.877 23.8219 89.5704 27.5904ZM108.519 66.6447C115.249 59.2077 123.124 53.7669 131.499 50.2142C126.514 42.7407 119.621 36.5984 111.363 32.4695C109.574 31.5751 107.463 31.5751 105.675 32.4695C97.4169 36.5984 90.5242 42.7407 85.5391 50.2142C93.9146 53.7669 101.789 59.2081 108.519 66.6447ZM149.065 129.472C154.873 126.576 160.201 122.753 164.847 118.107C178.866 104.084 183.775 83.3423 177.497 64.5125C176.865 62.6176 175.373 61.1255 173.478 60.4938C154.665 54.2243 133.919 59.1119 119.884 73.1431C115.238 77.7891 111.41 83.1176 108.519 88.9293C105.628 83.1176 101.8 77.7891 97.1541 73.1431C83.1313 59.1246 62.3897 54.2158 43.5599 60.4938C41.6608 61.1255 40.1729 62.6176 39.5413 64.5125C33.2717 83.3253 38.1593 104.071 52.1906 118.107C56.8323 122.748 62.165 126.576 67.9725 129.472C62.165 132.367 56.8366 136.19 52.1906 140.836C38.1721 154.859 33.2632 175.601 39.5413 194.431C40.1729 196.325 41.665 197.818 43.5599 198.449C62.3727 204.719 83.1186 199.831 97.1541 185.8C101.8 181.154 105.628 175.825 108.519 170.014C111.41 175.825 115.238 181.154 119.884 185.8C133.983 199.899 154.75 204.693 173.478 198.449C175.377 197.818 176.865 196.325 177.497 194.431C183.766 175.618 178.879 154.872 164.847 140.836C160.206 136.195 154.873 132.367 149.065 129.472ZM203.228 132.316C199.421 139.929 193.906 146.377 187.213 151.247C183.616 143.226 178.352 135.813 171.346 129.472C178.068 123.388 183.461 116.065 187.208 107.691C193.902 112.562 199.421 119.014 203.228 126.627C204.122 128.416 204.122 130.527 203.228 132.316ZM29.8296 151.252C33.5774 142.878 38.9703 135.555 45.6921 129.472C38.6858 123.131 33.4222 115.716 29.8254 107.696C23.1319 112.566 17.6169 119.014 13.8103 126.627C12.9158 128.416 12.9158 130.527 13.8103 132.316C17.6169 139.929 23.1362 146.381 29.8296 151.252ZM131.584 208.763C126.628 215.978 119.88 221.912 111.83 225.939C110.084 226.808 107.988 226.857 106.145 225.939C97.9807 221.857 91.1516 215.808 86.1792 208.449C94.6051 204.77 102.172 199.311 108.519 192.298C115.26 199.747 123.16 205.199 131.584 208.763ZM214.847 178.132C208.221 183.875 200.264 187.818 191.82 189.687C193.401 181.141 193.257 172.349 191.367 163.804C197.988 159.59 203.813 154.189 208.539 147.844C213.41 155.27 216.381 163.897 217.021 172.875C217.166 174.872 216.356 176.817 214.847 178.132ZM154.691 235.799C160.341 229.284 164.245 221.48 166.153 213.193C158.906 214.241 151.392 214.038 144.216 212.62C139.875 219.861 134.148 226.198 127.328 231.276C134.055 235.091 141.613 237.419 149.434 237.974C149.587 237.987 149.735 237.991 149.888 237.991C151.723 237.991 153.478 237.198 154.691 235.799ZM67.6037 237.974C75.6367 237.402 83.3857 234.964 90.2444 230.971C83.5468 225.91 77.9258 219.623 73.6571 212.459C66.2684 214.009 58.4766 214.295 50.8849 213.197C52.7925 221.484 56.7009 229.284 62.3473 235.799C63.5597 237.198 65.3146 237.991 67.1501 237.991C67.3027 237.991 67.4511 237.987 67.6037 237.974ZM166.153 45.7462C158.553 44.6576 151.047 44.9535 144.08 46.3439C139.829 39.0909 134.195 32.7196 127.467 27.5904C134.161 23.8219 141.664 21.5201 149.434 20.969C151.431 20.8249 153.376 21.6346 154.691 23.1436C160.337 29.6591 164.245 37.4589 166.153 45.7462ZM2.19107 178.924C8.85909 184.706 16.8709 188.661 25.3786 190.514C23.6279 181.709 23.7212 172.621 25.6754 163.804C19.1812 159.675 13.4542 154.406 8.77854 148.217C3.74256 155.737 0.665019 164.52 0.0164458 173.668C-0.127682 175.664 0.681975 177.61 2.19107 178.924ZM217.021 86.068C216.381 95.0463 213.41 103.673 208.539 111.1C203.813 104.749 197.988 99.3531 191.363 95.1395C193.253 86.5979 193.402 77.8018 191.82 69.2559C200.265 71.1254 208.221 75.0677 214.847 80.8116C216.356 82.1257 217.166 84.0714 217.021 86.068ZM8.49877 111.1C13.2253 104.754 19.0497 99.3531 25.6711 95.1395C23.7805 86.5936 23.6406 77.7976 25.2175 69.2559C16.7734 71.1254 8.8167 75.0677 2.19107 80.8116C0.681975 82.1257 -0.127682 84.0714 0.0164458 86.068C0.656541 95.0463 3.62811 103.673 8.49877 111.1ZM89.4433 129.472C89.4433 118.954 98.0019 110.396 108.519 110.396C119.036 110.396 127.595 118.954 127.595 129.472C127.595 139.989 119.036 148.547 108.519 148.547C98.0019 148.547 89.4433 139.989 89.4433 129.472ZM102.16 129.472C102.16 132.981 105.009 135.83 108.519 135.83C112.029 135.83 114.878 132.981 114.878 129.472C114.878 125.962 112.029 123.113 108.519 123.113C105.009 123.113 102.16 125.962 102.16 129.472Z" fill="#A1C2FE"/>
<path fill-rule="evenodd" clip-rule="evenodd" d="M117.098 178.57C118.738 178.859 119.861 177.257 122.4 171.916L122.587 171.528L122.771 171.159C125.798 165.208 129.297 163.312 133.27 165.468L134.865 160.763L134.329 160.517L133.814 160.284C125.566 156.599 121.111 156.375 120.45 159.612L120.384 159.966L120.33 160.251C119.845 162.719 118.662 167.472 117.805 171.519L117.661 172.209C116.946 175.677 116.528 178.47 117.098 178.57Z" fill="white"/>
<path fill-rule="evenodd" clip-rule="evenodd" d="M99.5333 130.847C99.5333 130.847 111.591 132.445 117.69 132.168C123.788 131.891 132.707 129.341 132.707 129.341L132.495 137.042C132.495 137.042 160.946 136.467 156.65 159.774C153.82 175.124 132.167 168.812 132.167 168.812L136.309 159.774C136.309 159.774 149.296 160.713 144.567 156.762C143.689 156.029 138.081 155.017 130.7 155.215C124.361 155.385 118.854 153.485 118.281 151.78C116.133 145.387 119.252 142.024 119.252 142.024C119.252 142.024 116.235 143.493 116.807 147.064C117.38 150.634 113.163 223.741 113.163 223.741C113.163 223.741 109.348 224.418 107.43 224.418C105.512 224.418 102.871 223.741 102.871 223.741L99.5333 130.847Z" fill="white"/>
<path fill-rule="evenodd" clip-rule="evenodd" d="M99.5333 130.847C99.5333 130.847 105.893 224.345 105.008 224.198C104.34 224.087 102.871 223.741 102.871 223.741L99.5333 130.847Z" fill="#E7EAEE"/>
<path fill-rule="evenodd" clip-rule="evenodd" d="M104.771 225.182C105.189 228.861 104.407 230.335 104.511 230.335C106.215 230.335 107.233 230.301 109.967 230.089C109.967 230.089 109.814 228.504 109.814 227.759C109.814 226.868 109.967 225.182 109.967 225.182H104.771Z" fill="white"/>
<path d="M100.558 45.7703C100.558 45.7703 94.1993 48.1581 94.1993 43.6635C94.1993 39.1689 99.1048 41.4094 99.1048 41.4094" fill="white"/>
<path d="M128.536 46.2394C129.87 46.5364 134.046 49.1406 134.046 42.8352C134.046 39.826 129.278 41.9996 129.278 41.9996" fill="white"/>
<path d="M113.361 19.942C108.108 20.4516 97.0987 25.4469 99.1031 39.7186C100.657 50.782 108.932 62.7071 114.017 62.7071C119.009 62.7071 127.414 52.6682 128.635 42.7844C131.127 22.5993 118.614 19.4324 113.361 19.942Z" fill="white"/>
<path fill-rule="evenodd" clip-rule="evenodd" d="M113.556 30.1548C113.835 29.5068 114.737 29.4637 115.077 30.082C116.811 33.2358 118.752 35.4336 120.889 36.6917C123.047 37.9621 125.592 38.0875 128.189 36.9232C128.616 36.7316 129.118 36.9226 129.309 37.3499C129.501 37.7771 129.31 38.2788 128.882 38.4704C125.788 39.8579 122.663 39.704 120.029 38.1528C117.975 36.9439 116.127 35.0227 114.474 32.3993L114.413 32.3017L114.358 32.4078C113.023 34.9423 111.301 36.9665 109.192 38.4702L108.98 38.6188C106.325 40.4461 103.209 41.2584 99.6622 41.0583C99.1948 41.0319 98.8372 40.6316 98.8636 40.1641C98.8899 39.6966 99.2903 39.339 99.7578 39.3654C102.939 39.5449 105.683 38.8297 108.019 37.2221C110.377 35.599 112.222 33.2496 113.556 30.1548Z" fill="#E7EAEE"/>
<path fill-rule="evenodd" clip-rule="evenodd" d="M140.671 111.361C140.16 120.982 136.565 125.064 132.072 125.65C131.476 125.728 132.311 129.157 131.792 129.607C128.831 132.168 123.611 132.278 115.426 132.353C108.017 132.42 103.239 131.822 99.9184 130.461C99.6644 130.357 99.893 126.041 99.6304 126.018C95.4705 125.65 90.6785 121.959 89.5142 111.918C85.5721 77.9246 97.4293 71.3547 108.715 65.9385C109.327 65.6447 109.659 65.1329 110.268 64.8419C111.551 64.228 111.216 65.6409 114.132 65.6409C117.049 65.6409 117.049 64.5336 118.362 65.161C118.852 65.3951 118.933 66.8574 119.42 67.1148C130.969 73.2086 142.084 84.7694 140.671 111.361Z" fill="white"/>
<path fill-rule="evenodd" clip-rule="evenodd" d="M119.42 67.1148C134.671 72.6338 141.754 87.3824 140.671 111.361C139.372 140.109 106.72 114.373 117.605 89.6064C120.199 83.7057 123.606 108.689 123.643 108.794C124.512 111.251 127.164 113.156 129.845 114.174C129.845 114.174 131.046 96.8585 128.959 88.694C126.997 81.0149 119.42 67.1148 119.42 67.1148Z" fill="white"/>
<path fill-rule="evenodd" clip-rule="evenodd" d="M109.6 61.4353C109.6 61.4353 110.029 62.72 109.88 63.514C109.731 64.3079 108.821 65.5926 108.821 65.5926C108.821 65.5926 83.5041 73.3151 89.3669 111.856C95.8886 139.806 118.753 121.629 114.785 99.3424C114.621 82.7934 110.874 88.3964 108.06 106.633C107.371 111.094 98.9104 112.361 98.9104 112.361" fill="white"/>
<ellipse cx="121.541" cy="50.6259" rx="2.33146" ry="1.90758" fill="#FFB61D"/>
<ellipse cx="107.552" cy="50.6258" rx="2.33148" ry="1.90758" fill="#FFB61D"/>
<path d="M48.97 224.077C41.4209 224.137 35.4864 224.473 30.462 225.181C18.3818 226.884 11.1996 230.884 8.01806 238.428C6.39396 242.278 7.17605 245.607 10.1584 248.199C12.7189 250.425 16.8846 252.107 22.5546 253.339L22.8712 253.407C32.5711 255.467 46.3435 256.211 63.8086 255.95L64.8825 255.932C73.087 255.791 81.4997 255.454 91.6257 254.91L101.707 254.338C105.249 254.134 108.898 253.924 110.198 253.855L111.955 253.764C115.686 253.578 118.092 253.509 119.576 253.556L121.241 253.619C145.309 254.5 164.092 253.296 176.175 250.459C181.688 249.165 185.631 247.56 187.836 245.734C190.225 243.756 190.637 241.376 188.867 239.274C183.342 232.715 174.276 229.01 159.628 227.035L158.871 226.934C146.701 225.355 131.563 224.87 102.797 224.851L98.6583 224.847C93.0608 224.831 87.702 224.754 80.5887 224.602L63.0904 224.204C57.8532 224.095 54.9076 224.061 51.6251 224.066L48.97 224.077Z" fill="white"/>
<ellipse cx="98.5716" cy="245.511" rx="90.3242" ry="9.42807" fill="#E7EAEE"/>
<path d="M109.904 53.1985C110.005 52.7413 112.092 53.1001 112.679 53.8809L112.861 54.123C113.408 54.8481 113.741 55.0768 114.447 55.0768C115.349 55.0768 115.656 54.9151 116.168 54.2438L116.305 54.0596C116.9 53.2444 119 52.6525 119.159 53.0928C119.319 53.5331 119.091 54.0191 118.651 54.1785C118.321 54.2979 118.133 54.4544 117.811 54.8762L117.66 55.0796C116.78 56.2846 116.048 56.7725 114.447 56.7725C113.147 56.7725 112.393 56.2855 111.59 55.2529L111.324 54.9L111.204 54.7438C110.939 54.4085 110.777 54.2729 110.59 54.2194L110.549 54.2091C110.092 54.1082 109.803 53.6557 109.904 53.1985Z" fill="#00160A"/>
<path d="M111.551 40.593C110.541 40.284 109.62 40.1954 109.088 40.2601C108.514 40.3297 107.79 40.6252 107.121 40.8978C106.586 41.1161 106.087 41.3197 105.73 41.381C105.376 41.4418 104.844 41.422 104.326 41.4027C103.671 41.3784 103.038 41.3548 102.812 41.4958C102.407 41.7484 103.012 42.1565 103.365 42.2033C104.586 42.3649 105.476 42.4033 106.065 42.3091C106.588 42.2255 107.06 42.0807 107.701 41.8347L108.371 41.58C108.816 41.4145 108.931 41.3878 109.088 41.3842L109.198 41.3845C109.646 41.3957 110.307 41.53 111.164 41.7921C111.504 41.8962 111.867 41.7121 111.974 41.381C112.081 41.0498 111.891 40.697 111.551 40.593Z" fill="#00160A"/>
<path d="M114.05 49.6908C114.529 48.2937 114.806 41.4115 114.279 41.406C113.753 41.4005 113.321 41.8231 113.316 42.3498C113.308 43.0904 113.313 43.8008 113.317 44.4668C113.33 46.4658 113.341 48.0652 113.006 48.8827L112.935 49.0514C112.503 50.1229 112.382 51.0347 113.536 51.248C114.225 51.3754 117.319 49.6207 117.141 49.125C116.962 48.6293 116.416 48.3719 115.92 48.5501L115.79 48.5963C115.496 48.6995 115.111 49.0216 114.765 49.3116C114.457 49.5692 114.18 49.8015 114.023 49.8325L113.998 49.837L114.05 49.6908Z" fill="#00160A"/>
<path d="M117.967 40.593C118.977 40.284 119.898 40.1954 120.43 40.2601C121.003 40.3297 121.728 40.6252 122.396 40.8978C122.931 41.1161 123.431 41.3197 123.787 41.381C124.142 41.4418 124.674 41.422 125.192 41.4027C125.847 41.3784 126.48 41.3548 126.706 41.4958C127.11 41.7484 126.506 42.1565 126.153 42.2033C124.931 42.3649 124.042 42.4033 123.452 42.3091C122.929 42.2255 122.457 42.0807 121.816 41.8347L121.147 41.58C120.702 41.4145 120.587 41.3878 120.43 41.3842L120.32 41.3845C119.872 41.3957 119.211 41.53 118.354 41.7921C118.014 41.8962 117.651 41.7121 117.544 41.381C117.437 41.0498 117.626 40.697 117.967 40.593Z" fill="#00160A"/>
<path d="M123.424 45.3855C123.69 44.931 123.538 44.3467 123.084 44.0803C122.923 43.9864 122.796 44.1647 122.603 44.435C122.25 44.9311 121.675 45.7369 120.27 45.7369C118.854 45.7369 118.273 44.9235 117.919 44.4287C117.731 44.165 117.607 43.9917 117.456 44.0803C117.002 44.3467 116.849 44.931 117.115 45.3855C117.788 46.5321 118.881 47.1286 120.27 47.1286C121.658 47.1286 122.752 46.5321 123.424 45.3855Z" fill="#00160A"/>
<path d="M111.248 44.1013C111.691 44.3866 111.819 44.9768 111.534 45.4196C110.803 46.5534 109.637 47.1286 108.153 47.1286C106.658 47.1286 105.503 46.5429 104.823 45.3866C104.556 44.9326 104.453 44.32 105.161 44.081C105.471 43.9765 105.785 44.2787 106.172 44.652C106.672 45.133 107.294 45.7323 108.188 45.7323C109.88 45.7323 110.479 44.8844 110.821 44.4006C110.993 44.1571 111.1 44.0058 111.248 44.1013Z" fill="#00160A"/>
<path fill-rule="evenodd" clip-rule="evenodd" d="M114.27 0.592638C108.925 1.54596 104.832 5.59515 104.032 11.5771C103.994 11.8615 103.969 12.1388 103.957 12.4092C103.031 12.6997 100.287 13.5854 100.363 13.8619C100.433 14.1193 102.866 13.5408 103.963 13.266C104.122 15.8888 105.603 17.769 108.1 18.9194C108.735 19.2121 109.419 19.4526 110.144 19.6464C107.564 20.4591 104.927 21.9458 102.843 23.9885C98.9933 27.7629 97.209 33.0865 98.1591 39.8513C98.1676 39.9123 98.1764 39.9733 98.1854 40.0345C95.1142 39.0885 93.2457 40.3439 93.2457 43.6635C93.2457 46.9939 98.1156 48.8656 100.175 47.5116C102.252 53.0094 105.485 58.0921 108.735 61.0344C108.637 61.2473 108.616 61.4968 108.696 61.737C108.935 62.4532 109.007 62.9937 108.943 63.3383L108.929 63.4013C108.856 63.7047 108.644 64.1377 108.29 64.6789L108.222 64.7804L108.024 64.8429C91.0046 70.3087 84.4919 86.1483 88.4244 111.999L88.4385 112.072L88.5109 112.378C90.4085 120.238 94.0002 124.825 98.4742 126.013C98.4736 126.035 98.4736 126.056 98.4742 126.078C99.2561 152.556 99.9395 173.653 100.525 189.37L100.737 194.951L100.949 200.241C101.248 207.512 101.517 213.102 101.756 217.013L101.908 219.414C102.169 223.341 102.322 224.206 102.883 224.602L102.937 224.639L102.979 224.664C103.1 224.734 103.248 224.796 103.426 224.851C103.217 224.851 103.008 224.851 102.798 224.851L98.6587 224.847C93.0612 224.831 87.7024 224.754 80.5891 224.602L63.0908 224.204C57.8536 224.095 54.908 224.061 51.6255 224.066L48.9705 224.077C41.4213 224.137 35.4869 224.473 30.4624 225.181C18.3823 226.884 11.2 230.884 8.01848 238.427C6.39439 242.278 7.17648 245.607 10.1588 248.199C12.7193 250.424 16.885 252.107 22.5551 253.339L22.8716 253.407C32.5716 255.466 46.344 256.211 63.809 255.949L64.8829 255.932C73.0874 255.791 81.5001 255.454 91.6261 254.909L101.707 254.338C105.25 254.134 108.899 253.924 110.198 253.855L111.955 253.764C115.687 253.578 118.092 253.509 119.577 253.555L121.242 253.618C145.31 254.5 164.092 253.296 176.176 250.459C181.688 249.165 185.631 247.56 187.837 245.734C190.225 243.756 190.638 241.376 188.867 239.273C183.343 232.715 174.276 229.01 159.628 227.035L158.871 226.934C148.377 225.573 135.677 225.025 113.936 224.887L114.056 224.879C114.596 224.843 115.022 224.404 115.043 223.863L116.616 179.741C116.66 179.742 116.706 179.741 116.753 179.738C118.808 179.596 120.2 178.326 122.735 173.549L123.037 172.974L123.382 172.306C124 171.165 125.642 169.392 127.049 167.872C127.972 166.875 128.795 165.986 129.161 165.458C129.919 165.606 131.021 165.722 132.465 165.807L132.646 165.817L131.499 168.601L131.478 168.66C131.334 169.096 131.566 169.574 132.008 169.725C147.134 174.928 155.358 170.867 157.482 159.935C160.511 144.344 152.313 136.51 133.42 136.709L133.718 126.729C134.879 126.565 135.966 126.097 136.941 125.306C139.699 123.068 141.307 118.429 141.625 111.404C142.703 87.5369 135.737 72.5105 120.678 66.5703L120.166 66.373L120.117 66.2383C119.852 65.4879 119.675 64.8802 119.584 64.4227L119.565 64.3198C119.47 63.7835 119.47 62.887 119.576 61.66C119.589 61.5073 119.566 61.3599 119.513 61.2265C123.222 58.2249 126.843 52.8327 128.61 47.2557L128.655 47.2711C128.673 47.2775 128.692 47.2842 128.712 47.2912L129.526 47.5806C130.06 47.7603 130.507 47.8759 130.965 47.9361C133.474 48.2656 135 46.6302 135 42.8352C135 41.4008 134.31 40.4084 133.019 40.1822C132.175 40.0343 131.115 40.23 129.798 40.743C130.426 32.494 128.494 26.5938 124.555 22.9064C123.071 21.5172 121.334 20.4994 119.531 19.842C121.207 19.3936 122.886 18.6349 124.192 17.5967C127.187 15.2147 128.132 11.6321 126.414 6.97936L132.255 5.67593L132.302 5.65969C132.498 5.57858 132.547 5.09199 132.547 4.7285C132.547 4.36501 132.249 3.9486 132.024 4.01252L126.047 6.0709C124.125 1.80312 119.281 -0.301297 114.27 0.592638ZM105.154 226.126L105.441 226.126C106.817 226.128 108.161 226.134 109.474 226.143C109.373 227.295 109.348 228.698 109.448 229.725H105.457C105.418 228.904 105.315 227.383 105.154 226.126ZM103.984 226.125C103.892 226.852 103.818 227.672 103.752 228.409C103.699 228.988 103.652 229.516 103.604 229.907C103.571 229.933 103.54 229.961 103.511 229.992C101.28 232.363 98.9705 233.906 96.5849 234.637L96.1963 234.754C94.1563 235.35 90.3357 236.29 90.4113 236.269C88.7464 236.743 87.94 237.29 87.6567 238.432C87.1902 240.312 89.0927 241.138 94.027 241.17L94.4028 241.171C95.2129 241.169 95.928 241.087 97.5026 240.838L98.7277 240.642C99.9631 240.45 100.694 240.368 101.363 240.362L101.653 240.364C102.005 240.373 102.368 240.409 103.161 240.511L104.131 240.637C104.692 240.709 105.089 240.753 105.508 240.787C107.242 240.93 108.567 240.81 109.677 240.278C112.549 238.9 112.898 235.473 111.019 230.284C111.016 230.278 111.014 230.272 111.012 230.266C111.022 230.208 111.027 230.149 111.027 230.089V226.155C135.005 226.366 148.365 227.655 159.345 229.135L160.189 229.252C173.864 231.188 182.232 234.686 187.246 240.639C189.27 243.042 185.619 246.065 175.691 248.396C163.696 251.212 144.831 252.4 120.582 251.473L119.846 251.444C118.11 251.375 115.19 251.468 110.351 251.724L105.902 251.974C104.209 252.071 102.26 252.183 100.417 252.289C97.6639 252.448 95.1477 252.593 94.0765 252.653L91.5142 252.793C81.832 253.314 73.7237 253.644 65.8696 253.794L64.8465 253.813C47.02 254.119 33.0137 253.393 23.3117 251.334C12.0471 248.943 6.68937 245.023 9.12362 239.251C11.9308 232.595 19.2099 228.115 30.4172 226.481L30.7583 226.432C34.108 225.96 37.8897 226.034 42.3197 226.121C44.524 226.164 46.8889 226.21 49.4409 226.194L51.6279 226.185C55.1776 226.18 78.8382 225.836 78.8382 225.836C87.1217 226.02 93.018 226.107 99.3142 226.12L103.984 226.125ZM118.085 62.2587C116.677 63.1531 115.288 63.6609 114.017 63.6609C113.019 63.6609 111.948 63.2956 110.85 62.6344C110.888 63.0145 110.878 63.3657 110.818 63.6898C110.688 64.3823 110.279 65.609 109.6 66.5679C109.581 66.5944 109.561 66.6199 109.54 66.6442C110.45 67.16 111.857 67.6957 113.8 67.4234C115.939 67.1235 117.122 66.363 117.841 65.7719C117.729 64.6361 117.872 63.2893 118.085 62.2587ZM118.075 66.9083C117.186 68.0702 115.689 69.331 113.8 69.331C110.953 69.331 109.083 68.6245 108.475 67.1256C92.7291 72.2381 85.791 86.4608 89.3501 110.957L89.4565 111.674L89.5145 111.918C91.6987 120.989 96.8511 124.974 101.924 124.352L102.08 124.332C106.623 123.693 111.05 119.32 112.236 114.337L112.411 113.587C113.295 109.741 113.832 106.34 113.832 103.546L113.829 102.386C113.8 96.2985 113.539 91.7927 113.212 89.8056L113.188 89.67L113.152 89.7682C113.014 90.1426 112.866 90.6012 112.71 91.1417L112.663 91.3063C111.948 93.8446 111.108 97.9705 110.154 103.703C109.452 107.916 98.1843 113.204 98.0156 112.705C97.9631 112.549 98.8862 111.913 100.199 111.009L100.2 111.009L100.205 111.005C100.716 110.653 101.287 110.26 101.881 109.839C101.86 109.8 101.839 109.759 101.817 109.715C100.156 106.385 99.1337 103.463 98.7557 100.937C98.382 98.4408 99.254 88.3938 99.808 88.3966L99.8776 88.3992C100.157 88.4187 100.096 89.7207 100.005 91.6507C99.9053 93.7542 99.7708 96.6037 100.004 99.352C100.257 102.336 101.58 105.342 102.499 107.43C102.753 108.007 102.976 108.514 103.137 108.93C105.566 107.128 108 105.02 108.272 103.389L108.488 102.105C109.347 97.0759 110.113 93.3652 110.786 90.9388L110.827 90.7888C111.196 89.4815 111.54 88.5475 111.879 87.9535C112.413 87.02 113.221 86.5342 114.07 87.2097C115.014 87.96 115.486 91.1881 115.659 97.0732C115.804 94.437 116.044 92.3036 116.369 90.7056C116.64 89.3701 116.971 88.4035 117.384 87.7924C117.97 86.9246 118.886 86.6286 119.719 87.2113L119.776 87.2524C121.565 88.6228 122.772 95.2697 122.843 103.914L122.846 104.637L122.863 104.738C123.956 108.869 126.222 111.278 128.278 112.72C132.472 105.846 130.031 93.1126 128.995 87.7111C128.697 86.1545 128.515 85.2068 128.642 85.1837C129.218 85.0796 129.77 85.462 129.874 86.0379C131.199 93.3671 131.882 98.7858 131.919 102.321C131.956 105.898 131.357 109.667 130.126 113.628C130.108 113.685 130.086 113.74 130.06 113.792C130.687 114.114 131.237 114.347 131.653 114.522C132.189 114.749 132.5 114.881 132.46 114.986C132.272 115.478 124.669 115.478 120.951 104.872C120.938 104.835 120.938 104.783 120.938 104.735L120.938 104.718C120.938 100.295 120.635 96.3499 120.103 93.3405C119.861 91.9702 119.578 90.838 119.275 90.0069L119.235 89.8978C119.1 89.5416 118.967 89.2626 118.853 89.0693L118.849 89.0608L118.825 89.1076C118.626 89.5191 118.421 90.1869 118.238 91.0858L118.208 91.2354C118.115 91.7098 118 92.2355 117.874 92.8113C117.328 95.2953 116.578 98.7116 116.561 102.969L116.56 103.604C116.56 111.031 121.78 120.023 127.715 123.547C133.881 127.208 139.164 123.609 139.719 111.317C140.786 87.715 134.268 71.9002 119.097 68.0117C118.601 67.8847 118.275 67.4746 118.075 66.9083ZM115.638 105.879C115.423 108.515 114.872 111.497 114.091 114.778C112.731 120.497 107.698 125.468 102.346 126.221C101.421 126.351 100.519 126.358 99.647 126.244C99.7009 127.023 99.7622 128.145 99.8298 129.56C100.021 129.533 100.221 129.558 100.41 129.643C101.806 130.271 109.536 131.139 116.252 131.273L116.751 131.282C124.739 131.402 130.459 130.514 131.533 128.884L131.598 126.707C130.305 126.512 128.955 125.998 127.589 125.187C121.68 121.679 116.537 113.434 115.638 105.879ZM95.1533 43.6635C94.988 41.1934 96.9886 41.3556 98.4649 41.6371C98.7798 43.202 99.2174 44.782 99.7525 46.339L99.6772 46.3369C98.0371 46.2914 95.3241 46.2161 95.1533 43.6635ZM129.681 42.0372C129.651 42.3226 129.618 42.6106 129.582 42.9012C129.452 43.9524 129.238 45.0177 128.953 46.0819C130.864 46.3082 134.064 46.4331 133.467 42.1883C133.234 40.5351 131.103 41.4317 129.681 42.0372ZM113.732 18.9566C114.547 18.9081 115.392 18.937 116.248 19.0445C118.413 19.0179 121.652 18.0302 123.137 16.2696C128.959 9.36257 120.886 1.53755 114.615 2.549C109.958 3.30008 105.564 6.57008 104.865 11.8017C104.529 14.3147 106.17 18.3168 113.732 18.9566ZM101.278 169.047C102.163 195.026 103.117 222.993 103.547 223.741C103.62 223.872 104.725 223.883 105.601 223.891L105.603 223.891H105.607C105.837 223.893 106.051 223.895 106.226 223.899L106.698 223.906L107.233 223.907C108.531 223.901 110.167 223.84 112.14 223.725L112.962 223.674L116.203 146.44C116.113 144.683 114.493 142.675 113.403 141.325C112.755 140.521 112.294 139.951 112.457 139.805C112.887 139.42 116.256 143.198 116.877 144.534C116.889 144.579 116.902 144.64 116.917 144.714C117.3 143.711 117.838 142.66 118.539 141.567C118.791 141.173 121.997 136.726 119.71 141.31C114.813 151.128 120.36 155.118 130.043 155.153L130.079 155.154L130.083 155.154C130.163 155.154 130.223 155.155 130.355 155.138C134.125 154.659 138.216 154.88 141.439 155.301C144.607 155.714 150.083 158.798 143.885 160.54C142.404 160.956 140.024 160.705 137.276 160.108L136.532 159.984L132.168 168.812L132.922 168.975C146.147 173.18 153.818 169.256 155.758 159.906L155.818 159.612C158.586 145.362 152.643 136.543 133.397 137.484L133.372 138.321C133.354 138.906 132.865 139.366 132.28 139.348C131.695 139.331 131.235 138.842 131.253 138.257L131.272 137.622C124.533 138.117 128.946 137.271 131.294 136.893L131.453 131.567C128.678 132.979 123.565 133.506 116.767 133.402L116.209 133.392C109.623 133.26 102.254 132.47 99.9282 131.721C100.28 139.784 100.768 154.085 101.278 169.045L101.278 169.047ZM134.644 160.963L133.072 164.782C131.982 164.617 131.23 164.424 130.666 164.279C130.479 164.231 130.313 164.188 130.162 164.154C129.957 162.636 129.962 161.535 130.153 160.885C130.32 160.32 130.56 160.002 130.874 159.858C131.55 160.079 132.346 160.32 133.261 160.58L133.95 160.773L134.644 160.963ZM128.728 164.26C128.811 164.205 128.899 164.164 128.989 164.135C128.761 162.914 128.759 161.055 128.951 160.406C129.081 159.964 129.191 159.616 129.34 159.336C129.122 159.261 128.791 159.091 128.382 158.882C126.504 157.921 123.003 156.129 121.462 158.941C118.86 163.686 116.574 178.592 117.239 178.596C118.186 178.603 120.591 175.238 122.174 172.25L122.244 172.117L122.652 171.322C123.895 168.913 125.88 166.128 128.728 164.26ZM136.154 159.046C135.815 158.986 135.479 159.137 135.297 159.418C135.224 159.374 135.144 159.34 135.058 159.318L129.188 157.869L129.059 157.795C124.596 155.273 121.71 155.487 119.696 158.297C118.981 159.293 118.624 160.546 118.452 162.208L118.431 162.418L118.407 162.705C118.384 162.993 118.365 163.291 118.347 163.658L118.275 165.191L118.262 165.423C118.24 165.784 118.217 166.019 118.186 166.24L118.165 166.372L118.1 166.729L118.06 166.912C118.038 167.011 118.01 167.125 117.974 167.265L117.87 167.662L117.233 169.96C117.119 170.484 117.012 170.978 116.912 171.441L117.594 152.304C119.738 154.965 124.295 156.367 130.804 155.963L131.341 155.932C131.593 155.919 131.847 155.906 132.104 155.892L132.112 155.892L132.159 155.889L132.168 155.889C135.003 155.736 138.08 155.571 140.867 156.19C147.817 157.734 144.975 159.153 144.362 159.458L144.326 159.476L144.307 159.486L144.228 159.524C143.248 159.959 140.951 159.871 136.61 159.125L136.154 159.046ZM90.6445 237.544L90.8759 237.476C90.764 237.51 99.1473 236.322 103.634 231.655C104.481 230.774 109.62 231.421 109.62 231.421L109.625 231.434C111.56 234.637 111.839 237.967 109.412 238.95C108.555 239.296 107.108 239.642 105.647 239.521L105.435 239.503L105.135 239.473C104.93 239.451 104.708 239.425 104.449 239.392L103.005 239.206C102.245 239.113 101.91 239.09 101.45 239.09C100.649 239.09 96.7946 239.656 96.7946 239.656C95.6184 239.836 95.0194 239.898 94.4003 239.899C91.9229 239.902 90.3624 239.294 89.5951 238.981L89.522 238.95C89.4532 238.919 89.3973 238.888 89.3535 238.86L89.3062 238.826L89.3024 238.841C89.3913 238.482 89.6915 237.834 90.6445 237.544ZM128.147 42.9012C128.39 40.9392 128.469 39.1053 128.405 37.4004C125.468 38.5667 122.528 38.3526 120.029 36.8811C117.976 35.6722 116.127 33.751 114.474 31.1276L114.413 31.0305L114.359 31.1361C113.024 33.6706 111.301 35.6948 109.192 37.1985L108.98 37.3472C106.334 39.1686 103.229 39.9816 99.6963 39.7885L99.7105 39.8513C101.725 48.7183 108.726 62.3797 114.133 62.7071C116.201 62.8324 119.202 59.4921 121.984 55.871C124.989 51.9611 127.596 47.3691 128.147 42.9012ZM123.251 24.299C125.897 26.7754 127.765 30.5586 128.282 35.6161C128.25 35.626 128.22 35.6377 128.189 35.6515C125.592 36.8158 123.047 37.1143 120.889 35.8439C118.753 34.5858 116.811 31.9642 115.078 28.8104C114.738 28.192 113.835 28.2351 113.556 28.8832C113.501 29.0119 113.44 29.1569 113.373 29.3158C112.607 31.1478 111.068 34.8305 107.727 36.7746C105.295 38.1899 101.706 38.5482 99.9344 38.7251L99.9324 38.7253L99.9296 38.7256C99.7715 38.7414 99.628 38.7557 99.5012 38.7692C99.4352 38.3567 99.3854 37.9466 99.351 37.5396C101.376 37.173 105.63 35.7717 107.341 34.6972C109.511 33.3342 110.176 31.9431 111.28 29.6305C111.483 29.2067 111.7 28.7518 111.944 28.2606C112.155 27.8364 112.654 25.0098 111.47 27.1593C111.398 27.2899 111.322 27.4325 111.24 27.5855L111.239 27.5864L111.239 27.5873C110.007 29.8907 107.503 34.5699 99.3017 36.7043C99.1423 31.9556 101.062 27.7003 103.869 24.9485C106.49 22.3785 110.455 20.6792 113.468 20.387C116.637 20.0795 120.468 21.694 123.251 24.299Z" fill="#00160A"/>
<path fill-rule="evenodd" clip-rule="evenodd" d="M72.8036 165.158C73.3112 159.749 75.8283 154.395 79.8173 150.719C82.7218 148.042 86.8844 145.8 90.7687 147.717C96.7444 151.284 98.3491 158.603 97.7466 165.158C96.9996 173.281 93.205 178.29 85.9152 181.282C81.8078 182.967 79.0773 185.191 76.8477 189.065C75.0641 192.163 74.0242 196.043 71.783 198.851C68.4323 203.05 64.2392 204.916 59.0708 204.219C58.0463 204.219 54.7464 207.291 53.7152 209.152C51.0221 214.013 48.7106 219.145 47.6496 224.632C47.34 226.234 47.5591 232.225 46.4659 233.382C44.4669 235.496 45.0525 231.424 45.172 230.195C46.1649 220.015 49.8193 211.343 55.1254 202.785C53.4953 200.656 53.26 195.238 53.7721 193.528C55.1254 188.229 71.7819 176.047 72.8036 165.158Z" fill="white"/>
<path fill-rule="evenodd" clip-rule="evenodd" d="M90.1038 148.702L90.1318 148.717C95.3698 151.843 97.2857 156.212 96.9095 166.354C96.5143 177.01 92.6492 178.899 85.7102 181.815L85.4989 181.903C81.6037 183.501 79.147 185.584 77.1375 189.076L76.9763 189.361C76.6252 189.994 76.3115 190.64 75.8692 191.627L75.0769 193.424C74.0076 195.836 73.3263 197.105 72.3244 198.361C69.0357 202.481 64.9222 204.241 59.9628 203.572L59.9157 203.563L59.87 203.548C59.1014 203.246 56.4885 205.903 55.3127 208.025C52.4568 213.179 50.6125 217.675 49.6945 222.199L49.632 222.514C49.5727 222.821 49.5338 223.292 49.4884 224.187L49.4258 225.513C49.4109 225.822 49.3969 226.09 49.3821 226.345L49.3732 226.496C49.2239 228.962 48.9789 230.37 48.4128 230.969C47.6568 231.769 46.9588 231.92 46.5762 231.225C46.3586 230.829 46.3077 230.191 46.3544 229.293L46.3731 228.994C46.3841 228.84 46.3977 228.681 46.414 228.51L46.5435 227.25C47.4604 218.516 50.4442 210.591 55.7124 202.003L55.8149 201.836L55.7496 201.732C54.4886 199.651 54.0289 194.99 54.6333 192.973C55.6663 189.528 57.7096 186.739 61.4276 183.061L62.075 182.424C68.3616 176.205 70.4703 172.998 72.1982 166.154L72.7928 163.786L72.8078 163.728C74.2269 158.257 75.7163 155.001 78.5327 152.406C81.9119 149.291 86.6622 147.003 90.1038 148.702ZM79.0749 152.994C76.4911 155.375 74.6645 158.383 73.3231 163.394L73.0347 164.503L72.6334 166.112C72.1982 170.426 70.8532 175.507 62.6369 182.993L62.2002 183.423C58.4362 187.118 56.4036 189.854 55.3996 193.203C54.8289 195.108 55.3514 199.935 56.611 201.58C56.7121 201.712 56.721 201.892 56.6334 202.034C51.2758 210.675 48.2576 218.594 47.3397 227.328L47.2271 228.416L47.1957 228.746C47.1817 228.903 47.1704 229.051 47.1614 229.194L47.1534 229.335C47.1145 230.082 47.1575 230.622 47.277 230.839L47.2829 230.853L47.2686 230.857C47.3746 230.835 47.5706 230.695 47.8315 230.419C48.1937 230.036 48.428 228.734 48.5638 226.621L48.5921 226.145L48.6965 224.01C48.7389 223.2 48.7773 222.745 48.8373 222.412L48.8465 222.362C49.7601 217.637 51.6532 212.979 54.6129 207.637L54.6778 207.522C56.0617 205.09 58.75 202.368 60.0995 202.782L60.1077 202.784L60.0698 202.779C64.7433 203.41 68.5817 201.768 71.6991 197.862C72.674 196.64 73.3421 195.378 74.439 192.889L75.0043 191.602C75.6009 190.258 75.9698 189.501 76.4441 188.677C78.5062 185.094 81.0455 182.907 84.9755 181.254L85.1952 181.163C91.9977 178.37 95.4278 173.731 96.1129 166.281L96.1324 166.058C96.7101 159.177 94.6447 153.243 89.8766 150.298L89.7361 150.212L89.7498 150.219C86.66 148.694 82.2367 150.08 79.0749 152.994Z" fill="#00160A"/>
<path fill-rule="evenodd" clip-rule="evenodd" d="M47.6375 206.595C45.1851 206.972 43.0486 205.536 42.226 203.143C41.5152 201.075 41.4458 198.669 40.6385 196.713C40.0824 195.367 39.1978 194.223 38.1162 193.256C35.2628 190.705 32.284 190.067 31.4334 185.834C30.7666 182.515 31.5946 175.751 36.2265 176.425C39.4488 176.896 42.0528 181.202 43.5537 183.918C45.4109 187.278 47.1438 190.879 48.1196 194.57C49.7272 200.65 49.9445 207.398 49.9644 213.626C49.9668 214.376 50.1234 223.542 49.0517 223.392C47.99 223.243 48.6623 213.728 48.5718 211.758" fill="white"/>
<path fill-rule="evenodd" clip-rule="evenodd" d="M82.5522 155.728C83.3226 156.123 83.1715 157.394 82.2499 159.663C81.3265 161.936 79.9648 163.647 78.5736 164.426C77.1506 165.222 75.851 164.894 75.4918 163.497C75.1678 162.238 77.3842 159.086 79.7375 157.002C80.9622 155.917 81.9183 155.403 82.5522 155.728ZM80.2679 157.601C78.3791 159.884 76.0511 162.86 76.2666 163.698C76.4774 164.517 77.1724 164.693 78.183 164.127C79.4014 163.446 80.8677 161.511 81.7273 159.395L81.8538 159.077C82.6397 157.562 82.6375 156.194 82.1871 156.04C81.7584 155.893 80.8294 156.922 80.2679 157.601ZM40.5224 181.867C40.8366 181.008 39.8922 179.951 38.1509 179.189C36.281 178.37 35.0645 178.312 35.0706 179.33C35.0746 180.018 36.0026 180.979 37.4183 181.843C38.8535 182.72 40.1933 182.767 40.5224 181.867ZM35.8819 179.384C35.9143 179.379 35.9539 179.377 36.0031 179.377L36.0554 179.379C36.1077 179.381 36.1716 179.379 36.2487 179.377C36.7282 179.364 37.7148 179.336 39.56 180.251C39.9555 180.447 40.2085 181.49 40.1711 181.592C40.0808 181.839 38.9015 182.212 37.8352 181.561C37.391 181.289 37.001 180.811 36.6838 180.421L36.6837 180.421L36.6835 180.421C36.5501 180.257 36.4295 180.109 36.3232 179.999C36.0838 179.751 35.9382 179.536 35.8891 179.406L35.8819 179.384ZM38.9114 187.471L39.1048 187.784C39.9504 189.164 40.462 190.141 40.6674 190.759C40.9419 191.584 40.648 192.168 39.8841 191.918C39.1874 191.69 37.8447 190.562 36.175 188.914C34.8241 187.582 34.1483 185.556 34.6664 184.585C35.3706 183.266 37.0141 184.42 38.9114 187.471ZM35.3721 184.562C35.0525 185.161 35.6105 187.234 36.7369 188.345L37.115 188.714C37.4085 188.998 37.7231 189.316 38.0351 189.632L38.0352 189.632C38.9935 190.602 39.9271 191.547 40.1514 191.382C40.4127 191.19 39.5623 189.389 38.6321 187.893C37.7351 186.451 36.5595 185.119 35.9647 184.702C35.5778 184.431 35.4392 184.437 35.3721 184.562ZM46.8386 200.482C47.0656 201.991 46.8625 203.117 46.1008 203.273C45.3177 203.433 44.4858 202.39 43.5583 200.263C42.6729 198.232 42.9045 196.308 44.063 196.017C45.2579 195.716 46.3433 197.381 46.8147 200.329L46.8386 200.482ZM44.2583 196.792C43.741 196.922 43.4727 198.279 44.142 200.021C44.6679 201.389 46.1008 204.638 46.4799 202.095C46.5376 201.708 46.5378 201.201 46.4475 200.601L46.399 200.299C45.9868 197.875 44.7875 196.659 44.2583 196.792ZM90.9016 173.719C92.8607 171.582 94.0207 168.919 93.0568 167.754C91.9081 166.366 86.6069 171.168 86.6761 173.567C86.7165 174.967 87.3257 175.686 88.3353 175.502C89.0838 175.366 89.9961 174.707 90.9016 173.719ZM92.4435 167.868L92.4712 167.905C92.9962 168.666 92.3827 171.356 90.7119 173.178C89.9143 174.048 88.7263 175.018 88.1921 175.115C87.746 175.196 87.5037 174.91 87.4758 173.944C87.4502 173.057 88.4379 171.2 89.8837 169.891C90.0436 169.746 90.2347 169.551 90.442 169.339L90.4421 169.339L90.4421 169.339C91.0706 168.697 91.8481 167.903 92.3577 167.896C92.4386 167.895 92.4561 167.887 92.4435 167.868ZM67.8581 198.64C67.4113 200.582 66.5288 201.846 65.3337 202.539C64.5234 203.009 63.7711 203.147 62.909 203.147C61.0594 203.147 60.2013 202.323 60.5232 200.985C60.7647 199.981 61.6935 198.734 62.9307 197.647C64.1645 196.563 65.4878 195.828 66.4494 195.768C67.7638 195.686 68.2935 196.747 67.8581 198.64ZM66.4992 196.566C65.7552 196.612 64.5714 197.27 63.4588 198.248C62.3341 199.236 61.496 200.361 61.301 201.172C61.1144 201.948 61.5302 202.747 62.9089 202.747C63.6429 202.747 64.268 202.632 64.9323 202.247C65.9289 201.669 67.0797 200.194 67.4785 198.46C67.8101 197.019 67.1634 196.525 66.4992 196.566ZM64.4369 189.863C66.0927 188.487 66.8849 187.041 66.408 186.246C65.8648 185.339 64.442 185.929 63.0008 187.512C62.0993 188.503 60.8365 190.217 60.4638 191.063C60.312 191.408 60.2605 191.665 60.3766 191.9C60.5522 192.255 60.9018 192.265 61.3105 192.097C61.8323 191.883 62.7147 191.27 64.0186 190.207L64.4369 189.863ZM65.2562 186.722C65.4316 186.649 65.5711 186.623 65.6622 186.634C65.7047 186.639 65.7151 186.646 65.7218 186.657C65.7319 186.674 65.7501 186.696 65.7723 186.723C65.8843 186.861 66.0999 187.125 65.9129 187.466C65.6187 188.003 64.6806 189.02 63.9256 189.648C62.9173 190.485 61.8606 191.073 61.2316 191.423L61.2312 191.424C61.1137 191.489 61.0111 191.546 60.9266 191.595L60.8733 191.625L60.9323 191.513C61.3671 190.72 62.7556 188.99 63.5034 188.15L63.5924 188.051C64.2207 187.36 64.8001 186.911 65.2562 186.722ZM82.9404 178.615C83.4174 179.411 82.6251 180.857 80.9693 182.233L80.5511 182.577C79.2471 183.64 78.3648 184.253 77.843 184.467C77.4342 184.634 77.0846 184.625 76.9091 184.27C76.793 184.035 76.8444 183.778 76.9963 183.433C77.3689 182.586 78.6317 180.872 79.5332 179.882C80.9745 178.298 82.3972 177.709 82.9404 178.615ZM82.1946 179.004C82.1036 178.993 81.9641 179.019 81.7887 179.092C81.3326 179.281 80.7531 179.73 80.1249 180.42L80.0359 180.519C79.2881 181.359 78.2995 183.089 77.8648 183.883L77.8057 183.994L77.859 183.964C78.396 183.654 79.2612 183.012 80.458 182.017C81.213 181.39 82.1512 180.373 82.4453 179.836C82.6323 179.495 82.4167 179.23 82.3047 179.093C82.2825 179.066 82.2644 179.043 82.2543 179.026C82.2476 179.015 82.2371 179.009 82.1946 179.004ZM72.4911 179.689C74.1469 178.313 74.9392 176.868 74.4622 176.072C73.919 175.166 72.4963 175.755 71.055 177.339C70.1535 178.329 68.8907 180.043 68.5181 180.89C68.3662 181.235 68.3148 181.492 68.4309 181.726C68.6064 182.081 68.956 182.091 69.3648 181.923C69.8866 181.71 70.7689 181.097 72.0728 180.034L72.4911 179.689ZM73.3105 176.548C73.4859 176.476 73.6253 176.45 73.7164 176.461C73.7589 176.466 73.7694 176.472 73.7761 176.483C73.778 176.486 73.78 176.49 73.7822 176.493C73.8506 176.607 74.0536 176.942 73.8365 177.339C73.5423 177.875 72.6823 179.234 72.3798 179.474C71.4819 180.185 70.3555 180.736 69.6092 181.101C69.3415 181.232 69.1226 181.339 68.9808 181.421L68.9275 181.451L68.9866 181.34C69.4213 180.546 70.8099 178.816 71.5577 177.976L71.6467 177.877C72.2749 177.187 72.8544 176.737 73.3105 176.548Z" fill="#FFB61D"/>
<path fill-rule="evenodd" clip-rule="evenodd" d="M36.2876 176.005C33.9476 175.665 31.8787 177.018 31.0187 179.493C30.343 181.437 30.6343 184.008 31.0179 185.917C31.5098 188.366 32.5347 189.674 34.7921 191.295L36.1488 192.247C36.6173 192.581 37.0017 192.871 37.3694 193.174C37.5291 193.305 37.6835 193.438 37.8337 193.572C38.9255 194.548 39.7399 195.648 40.2466 196.875L40.3159 197.048C40.5843 197.735 40.7543 198.417 40.9993 199.69L41.2096 200.803C41.4227 201.91 41.5834 202.577 41.8251 203.281C42.7527 205.979 44.7116 207.408 47.2779 207.014C47.5093 206.979 48.2696 207.036 46.566 206.691C44.8623 206.346 43.43 205.341 42.6268 203.005C42.4009 202.347 42.2474 201.709 42.0408 200.636L41.8294 199.517C41.5543 198.09 41.3672 197.368 41.0303 196.552C40.4723 195.2 39.5817 193.997 38.3987 192.94C38.2397 192.798 38.0767 192.658 37.9082 192.519C37.5715 192.242 37.2236 191.977 36.8182 191.684L36.4056 191.391C36.0638 191.151 35.5428 190.788 35.4373 190.714L35.1443 190.503C33.1477 189.047 31.8576 187.902 31.4251 185.75C31.0705 183.985 31.6191 181.567 32.2434 179.771C32.983 177.643 34.2861 176.147 36.1651 176.42C38.932 176.825 45.8006 186.88 47.6998 193.035C49.2625 198.1 49.6591 205.876 49.5555 212.857L49.5389 213.852L49.5412 215.223C49.5403 216.334 49.5293 217.263 49.5 218.229L49.4922 218.471C49.4457 219.868 49.3651 221.016 49.2443 221.842C49.2045 222.114 49.1608 222.347 49.1141 222.536L49.0902 222.629L49.0774 222.571C49.0246 222.317 48.9816 221.984 48.9489 221.579L48.9383 221.442L48.9194 221.15C48.8673 220.247 48.8568 219.092 48.879 217.649L48.8985 216.641C48.9069 216.271 48.9173 215.873 48.9303 215.409L49.0014 212.746C49.0093 212.332 49.0086 212.115 49.0021 211.913L48.9705 211.141C48.9475 210.514 48.9333 209.863 48.9172 208.828L48.8933 207.329C48.8291 203.901 48.7039 202.194 48.2956 200.096C48.234 199.779 48.1667 199.466 48.0934 199.158C47.0236 194.654 44.7213 191.412 42.4939 187.439C41.8251 186.246 38.3141 184.419 38.2818 184.651C38.2496 184.882 41.2881 186.254 42.2103 187.788C44.1722 191.051 46.2227 194.951 47.2685 199.354C47.3391 199.651 47.404 199.952 47.4634 200.257L47.5407 200.67C47.8764 202.532 47.9868 204.2 48.0458 207.354L48.0898 209.98C48.1011 210.514 48.1136 210.94 48.1309 211.373L48.1564 212.002C48.162 212.235 48.1595 212.521 48.1447 213.134L48.0546 216.461C48.0469 216.787 48.0406 217.089 48.0353 217.391L48.0214 218.364C47.9814 222.135 48.1571 223.694 48.9927 223.812C49.647 223.903 49.8927 223.267 50.0832 221.964C50.2022 221.151 50.2822 220.063 50.3308 218.748L50.3396 218.499C50.3751 217.434 50.388 216.437 50.389 215.226L50.3881 213.636C50.5674 206.382 49.7362 198.134 48.086 192.785C46.0963 186.336 39.4972 176.475 36.2876 176.005Z" fill="#00160A"/>
<ellipse rx="16.5323" ry="12.2932" transform="matrix(-1 0 0 1 49.1258 227.67)" fill="white"/>
<ellipse rx="9.9638" ry="12.2932" transform="matrix(-1 0 0 1 55.6942 227.67)" fill="#E7EAEE"/>
<path fill-rule="evenodd" clip-rule="evenodd" d="M34.4878 214.847H65.6878C65.9639 214.847 66.1878 215.071 66.1878 215.347C66.1878 223.893 65.3814 229.213 63.2386 232.907C60.8226 237.072 56.6598 239.047 50.0878 239.047C43.5158 239.047 39.353 237.072 36.9369 232.907C34.7942 229.213 33.9878 223.893 33.9878 215.347C33.9878 215.071 34.2117 214.847 34.4878 214.847ZM64.387 215.847H35.389L35.3892 215.962C35.4273 223.982 35.423 228.994 37.4019 232.405C39.622 236.232 43.8469 238.447 50.0878 238.447C56.3286 238.447 60.1536 235.832 62.3736 232.005L62.4482 231.875C64.3469 228.512 64.3278 224.013 64.3845 216.277L64.387 215.847Z" fill="#00160A"/>
</svg>
